/* XPM */
static char *result[] = {
/* columns rows colors chars-per-pixel */
"50 50 54 1 ",
"  c #0B2E43",
". c #0C2E44",
"X c #0D2E44",
"o c #164945",
"O c #1B4B47",
"+ c #1F5347",
"@ c #1A5646",
"# c #1B5646",
"$ c #225647",
"% c #265049",
"& c #2F5C4B",
"* c #246147",
"= c #276447",
"- c #266348",
"; c #276448",
": c #296648",
"> c #2D6848",
", c #356D4B",
"< c #396F4C",
"1 c #3D714D",
"2 c #337949",
"3 c #377B4A",
"4 c #41734D",
"5 c #40734E",
"6 c #33984B",
"7 c #379D4C",
"8 c #3DA34C",
"9 c #47844E",
"0 c #4B864F",
"q c #4E8850",
"w c #528A51",
"e c #49B24E",
"r c #4BB44E",
"t c #51B84E",
"y c #50B94E",
"u c #50BA4E",
"i c #55BF4E",
"p c #58BE50",
"a c #55C04E",
"s c #5AC54F",
"d c #5CC351",
"f c #61C951",
"g c #66CB52",
"h c #6ACD53",
"j c #72D155",
"k c #79D557",
"l c #7DD758",
"z c #81D959",
"x c #89DD5B",
"c c #89DE5B",
"v c #8DDF5C",
"b c #91E25D",
"n c #99E65F",
"m c None",
/* pixels */
"mmmX:sxnnnnnksnzsssssssssssssss866ri666666iss+ mmm",
"mmmX:sxnnnnnksnzsssssssssssssss866ri666666iss+ mmm",
"mmmX:sxnnnnnksnzsssssssssssssss866ri666666iss+ mmm",
"mmmX:sxnnnnnksnzsssssssssssssss866ri666666iss+ mmm",
"mmmX:sxnnnnnksnzsssssssssssssss866ri666666iss+ mmm",
"mmmX:sxnnnnnksnzsssssssssssssss866ri666666iss+ mmm",
"mmmX:sxnnnnnksnzsssssssssssssss866ri666666iss+ mmm",
"mmmX:sxnnnnnksnzsssssssssssssss866ri666666iss+ mmm",
"mmmX:sxnnnnnksnzsssssssssssssss866ri666666iss+ mmm",
"mmmX:sxnnnnnksnzsssssssssssssss866ri666666iss+ mmm",
"mmmX:sxnnnnnksnzsssssssssssssss866ri666666iss+ mmm",
"mmmX:sxnnnnnksnzsssssssssssssss866ri666666iss+ mmm",
"mmmX:sxnnnnnksnzsssssssssssssss866ri666666iss+ mmm",
"mmmX:sxnnnnnksnzsssssssssssssss866ri666666iss+ mmm",
"mmmX:sxnnnnnksnzsssssssssssssss866ri666666iss+ mmm",
"mmmX:sxnnnnnksnzsssssssssssssss866ri666666iss+ mmm",
"mmmX:sxnnnnnksnzsssssssssssssss866ri666666iss+ mmm",
"mmmX:sxnnnnnksnzsssssssssssssss866ri666666iss+ mmm",
"mmmX:sxnnnnnksnzsssssssssssssss866ri666666iss+ mmm",
"mmmX:shjjjjjgsjhsssssssssssssss866ri666666iss+ mmm",
"mmmX;aaaaaaaaaaaaaaaaaaaaaaaaaa866eu666666uaa+ mmm",
"mmmX#6666666666666666666666666666666666666666o mmm",
"mmmX#6666666666666666666666666666666666666666o mmm",
"mmmX#6666666666666666666666666666666666666666o mmm",
"m...............................................mm",
"m$:144444444,:4444<::::::::::::::::=@@@:*@@@@-::Om",
".2sbnnnnnnnnksnnnncssssssssssssssssi666sr6666yss:.",
".2sbnnnnnnnnksnnnncssssssssssssssssi666sr6666yss:.",
".2sbnnnnnnnnksnnnncssssssssssssssssi666sr6666yss:.",
".2sbnnnnnnnnksnnnncssssssssssssssssi666sr6666yss:.",
".2sbnnnnnnnnksnnnncssssssssssssssssi666sr6666yss:.",
".2sbnnnnnnnnksnnnncssssssssssssssssi666sr6666yss:.",
".2sbnnnnnnnnksnnnncssssssssssssssssi666sr6666yss:.",
".2sbnnnnnnnnksnnnncssssssssssssssssi666sr6666yss:.",
".2sbnnnnnnnnksnnnncssssssssssssssssi666sr6666yss:.",
".2sbnnnnnnnnksnnnncssssssssssssssssi666sr6666yss:.",
".2sbnnnnnnnnksnnnncssssssssssssssssi666sr6666yss:.",
".2sbnnnnnnnnksnnnncssssssssssssssssi666sr6666yss:.",
".2sbnnnnnnnnksnnnncssssssssssssssssi666sr6666yss:.",
".2sbnnnnnnnnksnnnncssssssssssssssssi666sr6666yss:.",
".2sbnnnnnnnnksnnnncssssssssssssssssi666sr6666yss:.",
".2sbnnnnnnnnksnnnncssssssssssssssssi666sr6666yss:.",
".2sbnnnnnnnnksnnnncssssssssssssssssi666sr6666yss:.",
".2sbnnnnnnnnksnnnncssssssssssssssssi666sr6666yss:.",
".2sbnnnnnnnnksnnnncssssssssssssssssi666sr6666yss:.",
".3fbnnnnnnnnlfnnnnvffffffffffffffffd777ft7777pff>.",
".wnnnnnnnnnnnnnnnnnnnnnnnnnnnnnnnnnbsssnzssssxnn5.",
".&wwwwwwwwwwwwwwwwwwwwwwwwwwwwwwwwwq222w922220ww%.",
"..................................................",
".................................................."
};
