/* XPM */
static char *result[] = {
/* columns rows colors chars-per-pixel */
"50 50 14 1 ",
"  c #0B2E43",
". c #0D2E44",
"X c #1F5347",
"o c #296648",
"O c #33984B",
"+ c #3DA34C",
"@ c #4BB44E",
"# c #55BF4E",
"$ c #5AC54F",
"% c #79D557",
"& c #81D959",
"* c #89DD5B",
"= c #99E65F",
"- c None",
/* pixels */
"---.o$*=====%$=&$$$$$$$$$$$$$$$+OO@#OOOOOO#$$X ---",
"---.o$*=====%$=&$$$$$$$$$$$$$$$+OO@#OOOOOO#$$X ---",
"---.o$*=====%$=&$$$$$$$$$$$$$$$+OO@#OOOOOO#$$X ---",
"---.o$*=====%$=&$$$$$$$$$$$$$$$+OO@#OOOOOO#$$X ---",
"---.o$*=====%$=&$$$$$$$$$$$$$$$+OO@#OOOOOO#$$X ---",
"---.o$*=====%$=&$$$$$$$$$$$$$$$+OO@#OOOOOO#$$X ---",
"---.o$*=====%$=&$$$$$$$$$$$$$$$+OO@#OOOOOO#$$X ---",
"---.o$*=====%$=&$$$$$$$$$$$$$$$+OO@#OOOOOO#$$X ---",
"---.o$*=====%$=&$$$$$$$$$$$$$$$+OO@#OOOOOO#$$X ---",
"---.o$*=====%$=&$$$$$$$$$$$$$$$+OO@#OOOOOO#$$X ---",
"---.o$*=====%$=&$$$$$$$$$$$$$$$+OO@#OOOOOO#$$X ---",
"---.o$*=====%$=&$$$$$$$$$$$$$$$+OO@#OOOOOO#$$X ---",
"---.o$*=====%$=&$$$$$$$$$$$$$$$+OO@#OOOOOO#$$X ---",
"---.o$*=====%$=&$$$$$$$$$$$$$$$+OO@#OOOOOO#$$X ---",
"---.o$*=====%$=&$$$$$$$$$$$$$$$+OO@#OOOOOO#$$X ---",
"---.o$*=====%$=&$$$$$$$$$$$$$$$+OO@#OOOOOO#$$X ---",
"---.o$*=====%$=&$$$$$$$$$$$$$$$+OO@#OOOOOO#$$X ---",
"---.o$*=====%$=&$$$$$$$$$$$$$$$+OO@#OOOOOO#$$X ---",
"---.o$*=====%$=&$$$$$$$$$$$$$$$+OO@#OOOOOO#$$X ---",
"---.o$*=====%$=&$$$$$$$$$$$$$$$+OO@#OOOOOO#$$X ---",
"---.o$*=====%$=&$$$$$$$$$$$$$$$+OO@#OOOOOO#$$X ---",
"---.o$*=====%$=&$$$$$$$$$$$$$$$+OO@#OOOOOO#$$X ---",
"---.o$*=====%$=&$$$$$$$$$$$$$$$+OO@#OOOOOO#$$X ---",
"---.o$*=====%$=&$$$$$$$$$$$$$$$+OO@#OOOOOO#$$X ---",
"---.o$*=====%$=&$$$$$$$$$$$$$$$+OO@#OOOOOO#$$X ---",
"---.o$*=====%$=&$$$$$$$$$$$$$$$+OO@#OOOOOO#$$X ---",
"---.o$*=====%$=&$$$$$$$$$$$$$$$+OO@#OOOOOO#$$X ---",
"---.o$*=====%$=&$$$$$$$$$$$$$$$+OO@#OOOOOO#$$X ---",
"---.o$*=====%$=&$$$$$$$$$$$$$$$+OO@#OOOOOO#$$X ---",
"---.o$*=====%$=&$$$$$$$$$$$$$$$+OO@#OOOOOO#$$X ---",
"---.o$*=====%$=&$$$$$$$$$$$$$$$+OO@#OOOOOO#$$X ---",
"---.o$*=====%$=&$$$$$$$$$$$$$$$+OO@#OOOOOO#$$X ---",
"---.o$*=====%$=&$$$$$$$$$$$$$$$+OO@#OOOOOO#$$X ---",
"---.o$*=====%$=&$$$$$$$$$$$$$$$+OO@#OOOOOO#$$X ---",
"---.o$*=====%$=&$$$$$$$$$$$$$$$+OO@#OOOOOO#$$X ---",
"---.o$*=====%$=&$$$$$$$$$$$$$$$+OO@#OOOOOO#$$X ---",
"---.o$*=====%$=&$$$$$$$$$$$$$$$+OO@#OOOOOO#$$X ---",
"---.o$*=====%$=&$$$$$$$$$$$$$$$+OO@#OOOOOO#$$X ---",
"---.o$*=====%$=&$$$$$$$$$$$$$$$+OO@#OOOOOO#$$X ---",
"---.o$*=====%$=&$$$$$$$$$$$$$$$+OO@#OOOOOO#$$X ---",
"---.o$*=====%$=&$$$$$$$$$$$$$$$+OO@#OOOOOO#$$X ---",
"---.o$*=====%$=&$$$$$$$$$$$$$$$+OO@#OOOOOO#$$X ---",
"---.o$*=====%$=&$$$$$$$$$$$$$$$+OO@#OOOOOO#$$X ---",
"---.o$*=====%$=&$$$$$$$$$$$$$$$+OO@#OOOOOO#$$X ---",
"---.o$*=====%$=&$$$$$$$$$$$$$$$+OO@#OOOOOO#$$X ---",
"---.o$*=====%$=&$$$$$$$$$$$$$$$+OO@#OOOOOO#$$X ---",
"---.o$*=====%$=&$$$$$$$$$$$$$$$+OO@#OOOOOO#$$X ---",
"---.o$*=====%$=&$$$$$$$$$$$$$$$+OO@#OOOOOO#$$X ---",
"---.o$*=====%$=&$$$$$$$$$$$$$$$+OO@#OOOOOO#$$X ---",
"---.o$*=====%$=&$$$$$$$$$$$$$$$+OO@#OOOOOO#$$X ---"
};
