/* XPM */
static char *result[] = {
/* columns rows colors chars-per-pixel */
"50 50 120 2 ",
"   c #5D3836",
".  c #523638",
"X  c #444E3E",
"o  c #0C2E44",
"O  c #103B45",
"+  c #113B45",
"@  c #233040",
"#  c #293E41",
"$  c #164946",
"%  c #1D5C47",
"&  c #1F5F47",
"*  c #247048",
"=  c #277748",
"-  c #337949",
";  c #8E251D",
":  c #95291E",
">  c #9C2D1E",
",  c #9C2D1F",
"<  c #A3311F",
"1  c #973F2C",
"2  c #803C30",
"3  c #A63320",
"4  c #A73320",
"5  c #AA3520",
"6  c #AE3721",
"7  c #B13921",
"8  c #B43B21",
"9  c #B53B22",
"0  c #B63E23",
"q  c #B83D22",
"w  c #BC3F23",
"e  c #8E442E",
"r  c #AE4228",
"t  c #AF4228",
"y  c #BF4123",
"u  c #BB4324",
"i  c #BA4426",
"p  c #B2472B",
"a  c #C24323",
"s  c #C64524",
"d  c #C04826",
"f  c #C74825",
"g  c #C94A26",
"h  c #C94B26",
"j  c #C94B27",
"k  c #CA4B26",
"l  c #C54D28",
"z  c #C44E29",
"x  c #CB4E28",
"c  c #C8532B",
"v  c #C9532B",
"b  c #CC5029",
"n  c #CC5129",
"m  c #CD5129",
"M  c #CD542A",
"N  c #CE542A",
"B  c #CF542A",
"V  c #CE542B",
"C  c #CF562C",
"Z  c #D0562B",
"A  c #D0562C",
"S  c #D0572C",
"D  c #D1592C",
"F  c #D1592D",
"G  c #D2592D",
"H  c #D25A2D",
"J  c #D35C2E",
"K  c #D35C2F",
"L  c #D45F2F",
"P  c #D66230",
"I  c #D76230",
"U  c #D66231",
"Y  c #D76532",
"T  c #D86532",
"R  c #D96832",
"E  c #D96833",
"W  c #DA6833",
"Q  c #DA6B34",
"!  c #DB6B34",
"~  c #DC6B34",
"^  c #DC6E35",
"/  c #DD6E35",
"(  c #DC6E36",
")  c #DD6E36",
"_  c #DE7137",
"`  c #DF7137",
"'  c #E07438",
"]  c #2E8B4A",
"[  c #38874A",
"{  c #33984B",
"}  c #389D4C",
"|  c #389E4C",
" . c #3FA64C",
".. c #3FA64D",
"X. c #40924B",
"o. c #44A74C",
"O. c #41A84C",
"+. c #42A84C",
"@. c #46AE4D",
"#. c #49B14D",
"$. c #48B14E",
"%. c #4BB44E",
"&. c #4DB74E",
"*. c #50B94E",
"=. c #50BA4E",
"-. c #55C04E",
";. c #58C34F",
":. c #5AC54F",
">. c #5EC750",
",. c #62C951",
"<. c #66CB52",
"1. c #6ACD53",
"2. c #6DCF54",
"3. c #7DD758",
"4. c #81D959",
"5. c #85DC5A",
"6. c #89DE5B",
"7. c #91E25D",
"8. c #95E45E",
"9. c #99E65F",
/* pixels */
"9.9.9.9.9.9.9.9.9.9.9.9.9.9.9.9.9.9.9.9.9.9.9.9.9.9.9.9.9.9.9.9.9.9.9.9.9.9.9.9.9.9.9.9.9.9.9.9.9.9.",
"4.4.4.4.4.4.4.4.4.4.4.4.4.4.4.4.4.4.4.4.4.4.4.4.4.4.4.4.4.4.4.4.4.5.9.9.9.9.9.9.9.8.4.4.4.4.4.4.4.4.",
":.:.:.:.:.:.:.:.:.:.:.:.:.:.:.:.:.:.:.:.:.:.:.:.:.:.:.:.:.:.:.:.:.,.9.9.9.9.9.9.9.7.:.:.:.:.:.:.:.:.",
":.:.:.:.:.:.:.:.:.:.:.:.:.:.:.:.:.:.:.:.:.:.:.:.:.:.:.:.:.:.:.:.:.>.1.1.1.7.9.9.3.<.:.:.:.:.:.:.:.:.",
":.:.:.:.:.:.:.:.:.:.:.:.:.:.:.:.:.:.:.:.:.:.:.:.:.:.:.:.:.:.;.-.:.:.:.:.:.6.7.7.2.:.:.:.:.:.:.:.:.:.",
":.:.:.:.:.:.:.:.:.:.:.:.:.:.:.:.:.:.:.:.:.:.:.:.:.:.:.:.:.:.%.{ *.:.:.:.:.:.:.:.:.:.:.:.:.:.:.:.:.:.",
"- - - - - - - - - - - - - - - - - - - - - - - - - - - - - @. .{ +.#.:.:.:.:.:.:.&.o.- - - - - - - - ",
"o o o o o o o o o o o o o o o o o o o o o o o o o o o o o { { { { | :.:.:.:.:.:.O.] o o o o o o o o ",
"t t t t t t t t t t t t t t t t t t t t t t t t t t t t t + % { { { } $.:.:.=.} & # t t t t t t t t ",
"s s s s s s s s s s s s s s s s s s s s s s s s s s s s s . X * * = { ..%.X.[ * X   s s s s s s s s ",
"s s s s s s s s s s s s s s s s s s s s s s s s s s s s s s 2 o o + { { { O o o 2 s s s s s s s s s ",
"s s s s s s s s s s s s s s s s s s s s s s s s s s s s s s r 1 1 e $ $ $ 2 1 1 i s s s s s s s s s ",
"g g g s s s s s s s s g g g f s s s s s s s s s g g g g g s s s s t @ @ @ p g g f s s s s s s s s s ",
"' ' ' m s s s s s s s E ' ' J s s s s s s s s s E ' ' ' ' s s s s s s s s ) ' ' Z s s s s s s s s s ",
"' ' ' U F s s s s x J ^ ' ' E J f s s s s s x J ^ ' ' ' ' J M s s s s n J ` ' ' Y F s s s s s s N J ",
"' ' ' ' / s s s s A ' ' ' ' ' ' h s s s s s A ' ' ' ' ' ' ' P s s s s J ' ' ' ' ' / s s s s s s U ' ",
"' ' ' ' ' ( ( ( ( _ ' ' ' ' ' ' ( ( ( ( ( ( _ ' ' ' ' ' ' ' _ ( ( ( ( _ ' ' ' ' ' ' ( ( ( ( ( ( _ ' ",
"W W W ` ' ' ' ' ' ' ' ~ W W ) ' ' ' ' ' ' ' ' ' ~ W W W W ' ' ' ' ' ' ' ' ~ W W ) ' ' ' ' ' ' ' ' ' ",
"s s s E ' ' ' ' ' ' ' m s s J ' ' ' ' ' ' ' ' ' m s s s s ' ' ' ' ' ' ' ' h s s U ' ' ' ' ' ' ' ' ' ",
"P P P S H ' ' ' ' E S P P P J S ` ' ' ' ' ' E S P P P P P S U ' ' ' ' T S P P P J H ' ' ' ' ' ' U S ",
"' ' ' m j ' ' ' ' P s E ' ' J s ) ' ' ' ' ' P s E ' ' ' ' s A ' ' ' ' J s ) ' ' Z j ' ' ' ' ' ' Z s ",
"' ' ' ' / s s s s A ' ' ' ' ' ' h s s s s s A ' ' ' ' ' ' ' P s s s s J ' ' ' ' ' / s s s s s s U ' ",
"' ' ' ' _ C C C C P ' ' ' ' ' ' F C C C C C P ' ' ' ' ' ' ' E C C C C T ' ' ' ' ' _ C C C C C C E ' ",
"' ' ' ' ' ' ' ' ' ' ' ' ' ' ' ' ' ' ' ' ' ' ' ' ' ' ' ' ' ' ' ' ' ' ' ' ' ' ' ' ' ' ' ' ' ' ' ' ' ' ",
"m m m ! ' ' ' ' ' ' ' H m m U ' ' ' ' ' ' ' ' ' H m m m m ' ' ' ' ' ' ' ' S m m T ' ' ' ' ' ' ' ' ' ",
"b b b U W ' ' ' ' ` W Z b b J W ` ' ' ' ' ' ` W Z b b b b W ~ ' ' ' ' ) W b b b U W ' ' ' ' ' ' ) W ",
"' ' ' m j ' ' ' ' P s E ' ' J s ) ' ' ' ' ' P s E ' ' ' ' s A ' ' ' ' J s ) ' ' Z j ' ' ' ' ' ' Z s ",
"' ' ' R P S S S S J P ^ ' ' Q P S S S S S S J P ^ ' ' ' ' P J S S S S J P ` ' ' R P S S S S S S J P ",
"' ' ' ' / s s s s A ' ' ' ' ' ' h s s s s s A ' ' ' ' ' ' ' P s s s s J ' ' ' ' ' / s s s s s s U ' ",
"' ' ' ' ' ' ' ' ' ' ' ' ' ' ' ' ' ' ' ' ' ' ' ' ' ' ' ' ' ' ' ' ' ' ' ' ' ' ' ' ' ' ' ' ' ' ' ' ' ' ",
"I I I ` ' ' ' ' ' ' ' T I I ! ' ' ' ' ' ' ' ' ' T I I I I ' ' ' ' ' ' ' ' T I I ) ' ' ' ' ' ' ' ' ' ",
"s s s E ' ' ' ' ' ' ' m s s J ' ' ' ' ' ' ' ' ' m s s s s ' ' ' ' ' ' ' ' h s s U ' ' ' ' ' ' ' ' ' ",
"E E E S B ' ' ' ' E m P E E J m ) ' ' ' ' ' E m P E E E E m K ' ' ' ' U m P E E J B ' ' ' ' ' ' L m ",
"' ' ' Z b ) ) ) ) P g E ' ' L g W ) ) ) ) ) P g E ' ' ' ' g A ) ) ) ) J g ) ' ' D b ) ) ) ) ) ) Z g ",
"' ' ' ' / s s s s A ' ' ' ' ' ' h s s s s s A ' ' ' ' ' ' ' P s s s s J ' ' ' ' ' / s s s s s s U ' ",
"' ' ' ' _ J J J J T ' ' ' ' ' ' L J J J J J T ' ' ) J J J ' Q J J J J E ' L J J ! _ J J J J J J ! ' ",
"' ' ' ' ' ' ' ' ' ' ' ' ' ' ' ' ' ' ' ' ' ' ' ' ' W s s s ' ' ' ' ' ' ' ' h s s U ' ' ' ' ' ' ' ' ' ",
"k k k ! ' ' ' ' ' ' ' V k k L ' ' ' ' ' ' ' ' ' V u : : : k G ' ' ' ' L k > : : 0 m ' ' ' ' ' ' F k ",
"b b b U W ' ' ' ' ` W Z b b J W ` ' ' ' ' ' ` W Z d > > > q z W W W W v q > > > 7 u W W W W W W l q ",
"' ' ' m j ' ' ' ' P s E ' ' J s ) ' ' ' ' ' P s E W s s s ; < s s s s 5 ; y s s < : s s s s s s < ; ",
"' ' ' R P S S S S J P ^ ' ' Q P S S S S S S J P ^ W s s s 7 5 < < < < 5 7 a s s q 7 < < < < < < 5 7 ",
"' ' ' ' / g g g g G ' ' ' ' ' ' b g g g g g G ' ' W s s s s 8 : : : : 6 s s s s s y : : : : : : 9 s ",
"' ' ' ' ' ' ' ' ' ' ' ' ' ' ' ' ' ' ' ' ' ' ' ' ' W s s s s s s s s s s s s s s s s s s s s s s s s ",
"J J J ^ ' ' ' ' ' ' ' U J J E ' ' ' ' ' ' ' ' ' U c 5 5 5 s s s s s s s s 6 5 5 w s s s s s s s s s ",
"s s s E ' ' ' ' ' ' ' m s s J ' ' ' ' ' ' ' ' ' m q ; ; ; s s s s s s s s : ; ; 7 s s s s s s s s s ",
"( ( ( m m ' ' ' ' Y k E ( ( J k ) ' ' ' ' ' Y k E P y y y : 3 s s s s 6 : q y y < , s s s s s s 4 : ",
"' ' ' F C W W W W J b ! ' ' P b W W W W W W J b ! W s s s > 5 q q q q 5 > a s s 5 < q q q q q q < > ",
"' ' ' ' / s s s s A ' ' ' ' ' ' h s s s s s A ' ' W s s s s 7 ; ; ; ; 5 s s s s s y ; ; ; ; ; ; 7 s ",
"' ' ' ' _ P P P P E ' ' ' ' ' ' Y P P P P P E ' ' W s s s s y 7 7 7 7 w s s s s s a 7 7 7 7 7 7 y s ",
"' ' ' ' ' ' ' ' ' ' ' ' ' ' ' ' ' ' ' ' ' ' ' ' ' W s s s s s s s s s s s s s s s s s s s s s s s s "
};
