/* XPM */
static char *result[] = {
/* columns rows colors chars-per-pixel */
"50 50 181 2 ",
"   c #391F21",
".  c #3A333C",
"X  c #3B333C",
"o  c #3B343C",
"O  c #63221F",
"+  c #68221F",
"@  c #6D231E",
"#  c #6E231E",
"$  c #6C241F",
"%  c #73231E",
"&  c #78231E",
"*  c #79231E",
"=  c #79241E",
"-  c #7E241E",
";  c #432020",
":  c #442020",
">  c #4E2020",
",  c #582120",
"<  c #592120",
"1  c #5E2120",
"2  c #4B3E3A",
"3  c #5F3E36",
"4  c #523638",
"5  c #6C2420",
"6  c #7E2920",
"7  c #603E37",
"8  c #693934",
"9  c #743A32",
"0  c #4D493C",
"q  c #59453E",
"w  c #5C483F",
"e  c #624136",
"r  c #624137",
"t  c #764133",
"y  c #76503E",
"u  c #76513E",
"i  c #0C2E44",
"p  c #103B45",
"a  c #113B45",
"s  c #133E45",
"d  c #233140",
"f  c #263743",
"g  c #413F41",
"h  c #164145",
"j  c #164945",
"k  c #154846",
"l  c #1B5646",
"z  c #245144",
"x  c #285E45",
"c  c #295E45",
"v  c #1F6347",
"b  c #246847",
"n  c #3A7147",
"m  c #337949",
"M  c #555842",
"N  c #83241E",
"B  c #81261E",
"V  c #84241E",
"C  c #89241D",
"Z  c #89241E",
"A  c #8E251D",
"S  c #95291E",
"D  c #982B1E",
"F  c #992B1F",
"G  c #9C2D1E",
"H  c #9C2D1F",
"J  c #9F2F1F",
"K  c #A02F1F",
"L  c #A3311F",
"P  c #902D20",
"I  c #8B3D2E",
"U  c #8C3E2E",
"Y  c #993020",
"T  c #973F2C",
"R  c #803C30",
"E  c #A33120",
"W  c #A63320",
"Q  c #AA3520",
"!  c #AE3721",
"~  c #B13921",
"^  c #B43B21",
"/  c #B63E23",
"(  c #B43F24",
")  c #B83D22",
"_  c #BB3F22",
"`  c #BC3F23",
"'  c #8F442E",
"]  c #9E4A31",
"[  c #865B3E",
"{  c #955035",
"}  c #90593D",
"|  c #9E5E3C",
" . c #A3412A",
".. c #AF4228",
"X. c #BF4123",
"o. c #BB4324",
"O. c #BE4927",
"+. c #BF4927",
"@. c #C24323",
"#. c #C24725",
"$. c #C34725",
"%. c #C64524",
"&. c #C04826",
"*. c #C14826",
"=. c #C04827",
"-. c #C74825",
";. c #C94A26",
":. c #C94B26",
">. c #C94B27",
",. c #CA4B26",
"<. c #C34D28",
"1. c #CA4E28",
"2. c #C8532B",
"3. c #C9532B",
"4. c #CC5029",
"5. c #CC5129",
"6. c #CD5129",
"7. c #CE532A",
"8. c #CF542A",
"9. c #CE542B",
"0. c #CF562B",
"q. c #CF562C",
"w. c #CB592D",
"e. c #D0562B",
"r. c #D0562C",
"t. c #D0572C",
"y. c #D2592D",
"u. c #D25A2D",
"i. c #D35C2E",
"p. c #D35D2E",
"a. c #D35C2F",
"s. c #D45F2F",
"d. c #D55F2F",
"f. c #C26537",
"g. c #C66B39",
"h. c #C56B3A",
"j. c #D66230",
"k. c #D76230",
"l. c #D66231",
"z. c #D76532",
"x. c #D86532",
"c. c #D96833",
"v. c #DA6833",
"b. c #DA6B34",
"n. c #DB6B34",
"m. c #DC6B34",
"M. c #DC6E35",
"N. c #DD6E35",
"B. c #DC6E36",
"V. c #DD6E36",
"C. c #D36F39",
"Z. c #DE7137",
"A. c #DF7137",
"S. c #E07438",
"D. c #2C854A",
"F. c #2E8B4A",
"G. c #38864A",
"H. c #38874A",
"J. c #3D8C4B",
"K. c #3D944B",
"L. c #33984B",
"P. c #389D4C",
"I. c #3CA34C",
"U. c #458749",
"Y. c #469F4C",
"T. c #479F4C",
"R. c #46AE4D",
"E. c #47AF4E",
"W. c #4BA94D",
"Q. c #4CAD4D",
"!. c #4BB44E",
"~. c #4DB74E",
"^. c #50B24E",
"/. c #50BA4E",
"(. c #52BD4E",
"). c #53BD4E",
"_. c #55BF4E",
"`. c #58C24F",
"'. c #5AC54F",
"]. c #81D959",
"[. c #99E65F",
/* pixels */
"[.[.[.[.[.[.[.[.[.[.[.[.[.[.[.[.[.[.[.[.[.[.[.[.[.[.[.[.[.[.[.[.[.[.[.[.[.[.[.[.[.[.[.[.[.[.[.[.[.[.",
"].].].].].].].].].].].].].].].].].].].].].].].].].].].].].].].].].].].].].].].].].].].].].].].].].].",
"'.'.'.'.'.'.'.'.'.'.'.'.'.'.'.'.'.'.'.'.'.'.'.'.'.'.'.'.'.'.'.'.'.'.'.'.'.'.'.'.'.'.'.'.'.'.'.'.'.'.",
"'.'.'.'.'.'.'.'.'.'.'.'.'.'.'.'.'.'.'.'.'.'.'.'.'.'.'.'.'.'.'.'.'.'.'.'.'.'.'.'.'.'.'.'.'.'.'.'.'.'.",
"'.'.'.'.'.'.'.'.'.'.'.'.'.'.'.'.'.'.'.'.'.'.'.'.'.'.'.'.'.'.'.'.'.'.'.'.'.'.'.'.'.'.'.'.'.'.'.'.'.'.",
"'.'.'.'.'.'.'.'.'.'.'.'.'.'.'.'.'.'.'.'.'.'.'.'.'.'.'.'.'.'.'.'.'.'.'.'.'.'.'.'.'.'.'.'.'.'.'.'.'.'.",
"m m m K.R.`.(.R.G.m m m m m H.R.).'.'.(.R.G.m m m m m m m m m m m m m m m m m m m m m m m m m m m m ",
"i i i v L._.!.L.j i i i i i k L.!.'.'.!.L.j i i i i i i i i i i i i i i i i i i i i i i i i i i i i ",
"......3 a h s a ' ..........R a s h h s a ' ........................................................",
"%.%.%.U 4 4 4 4  .%.%.%.%.%...4 4 4 4 4 4  .%.%.%.%.%.%.%.%.%.%.%.%.%.%.%.%.%.%.%.%.%.%.%.%.%.%.%.%.",
"%.%.%.%.%.%.%.%.%.%.%.%.%.%.%.%.%.%.%.%.%.%.%.%.%.%.%.%.%.%.%.%.%.%.%.%.%.%.%.%.%.%.%.%.%.%.%.%.%.%.",
"%.%.%.%.%.%.%.%.%.%.%.%.%.%.%.%.%.%.%.%.%.%.%.%.%.%.%.%.%.%.%.%.%.%.%.%.%.9 o o R %.%.%.%.%.%.%.%.%.",
";.;.%.%.%.%.%.%.%.%.;.;.;.%.%.%.%.%.%.%.%.%.-.;.;.;.;.-.%.%.%.%.%.%.......2 h h e ..%.%.%.%.%.%.-.;.",
"S.N.%.%.%.%.%.%.%.>.S.S.S.:.%.%.%.%.%.%.%.%.4.S.S.S.S.j.%.%.%.%.%.%.d i i J.'.'.m i ..%.%.%.%.%.r.S.",
"S.Z.i.5.%.%.%.%.0.d.S.S.S.s.t.%.%.%.%.%.%.0.j.S.S.S.S.b.i.>.%.%.T 8 x b m W.'.'.Y.m r R %.I 8 8 { S.",
"S.S.S.i.%.%.%.%.c.S.S.S.S.S.v.%.%.%.%.%.%.c.S.S.S.S.S.S.S.6.%.%.8 i F.I.'.'.'.'.'.'.h X %.4 i i w S.",
"S.S.S.Z.B.B.B.B.Z.S.S.S.S.S.S.B.B.B.B.B.B.Z.S.S.S.S.S.S.S.Z.f.d c F.L.L.P.~.'.'.'.'.h g B.q i ^.U.f ",
"v.v.S.S.S.S.S.S.S.S.v.v.v.A.S.S.S.S.S.S.S.S.A.v.v.v.v.m.S.S.h.i v L.D.D.L.E./.T.Q./.s g S.y g T.n . ",
"%.>.S.S.S.S.S.S.S.N.%.%.%.V.S.S.S.S.S.S.S.S.v.%.%.%.%.r.S.S.h.i v L.p k L.L.F.i v L.p g S.S.S.i 4 %.",
"j.j.t.x.S.S.S.S.p.t.j.j.j.t.d.S.S.S.S.S.S.p.i.j.j.j.j.i.t.M.C.} M l t 7 l l z R 0 l [ | S.S.S.R ] j.",
"S.N.%.i.S.S.S.S.6.>.S.S.S.:.4.S.S.S.S.S.S.6.4.S.S.S.S.j.%.c.S.S.u i ..T i i d %.8 i g.S.S.S.S.%.r.S.",
"S.S.S.i.%.%.%.%.c.S.S.S.S.S.v.%.%.%.%.%.%.c.S.S.S.S.S.S.S.6.%.%.%.%.V.S.S.S.S.S.i.%.%.%.%.%.%.S.S.S.",
"S.S.S.x.q.q.q.q.n.S.S.S.S.S.V.q.q.q.q.q.q.n.S.S.S.S.S.S.S.s.q.q.q.q.A.S.S.S.S.S.x.q.q.q.q.q.q.S.S.S.",
"S.S.S.S.S.S.S.S.S.S.S.S.S.S.S.S.S.S.S.S.S.S.S.S.S.S.S.S.S.S.S.S.S.S.S.S.S.S.S.S.S.S.S.S.S.S.S.S.S.S.",
"6.8.S.S.S.S.S.S.S.Z.6.6.6.V.S.S.S.S.S.S.S.S.n.6.6.6.6.a.S.S.S.S.S.S.S.n.6.6.8.S.S.S.S.S.S.S.S.S.c.6.",
"4.q.v.V.S.S.S.S.m.k.4.4.4.v.m.S.S.S.S.S.S.m.k.4.4.4.4.i.v.A.S.S.S.S.m.k.4.4.q.v.V.S.S.S.S.S.S.v.i.4.",
"S.N.%.i.S.S.S.S.6.>.S.S.S.:.4.S.S.S.S.S.S.6.4.S.S.S.S.j.%.c.S.S.S.S.:.4.S.S.N.%.i.S.S.S.S.S.S.%.r.S.",
"S.Z.j.i.t.t.t.t.j.x.S.S.S.z.i.t.t.t.t.t.t.j.x.S.S.S.S.M.j.t.t.t.t.t.j.x.S.S.Z.j.i.t.t.t.t.t.t.j.c.S.",
"S.S.S.i.%.%.%.%.c.S.S.S.S.S.v.%.%.%.%.%.%.c.S.S.S.S.S.S.S.6.%.%.%.%.V.S.S.S.S.S.i.%.%.%.%.%.%.S.S.S.",
"S.S.S.S.S.S.S.S.S.S.S.S.S.S.S.S.S.S.S.S.S.S.S.S.e.%.%.r.S.S.S.S.S.S.S.v.%.%.>.S.S.S.S.S.S.S.S.S.j.%.",
"k.x.S.S.S.S.S.S.S.Z.k.k.k.A.S.S.S.S.S.S.S.S.V.k.O.~ ~ +.k.A.S.S.S.S.x.w.~ ~ / k.n.S.S.S.S.S.S.k.2.~ ",
"%.>.S.S.S.S.S.S.S.N.%.%.%.V.S.S.S.S.S.S.S.S.v.%.L A A L %.c.S.S.S.S.:.) A A S %.i.S.S.S.S.S.S.%.~ A ",
"c.c.6.l.S.S.S.S.u.6.c.c.c.t.y.S.S.S.S.S.S.u.r.c.<.) ) ~ H =.6.6.6.6.L L ) ) ) H ( 6.6.6.6.6.6.H L ) ",
"S.N.;.i.V.V.V.V.e.4.S.S.S.4.4.V.V.V.V.V.V.e.7.S.e.%.%.^ S ~ X.X.X.X.G K %.%.X.S Q X.X.X.X.X.X.S W %.",
"S.S.S.i.%.%.%.%.c.S.S.S.S.S.v.%.%.%.%.%.%.c.S.S.e.%.%.%.%.G A A A A X.%.%.%.%.%.Q A A A A A A %.%.%.",
"i.d.S.c.i.i.i.i.M.Z.i.i.i.A.V.i.i.i.i.i.i.M.V.i.1.%.%.%.%.~ Q Q Q Q @.%.%.%.%.%.) Q Q Q Q Q Q %.%.%.",
"%.>.S.S.S.S.S.S.S.N.%.%.%.V.S.S.S.S.S.S.S.S.v.%.%.%.%.%.%.%.%.%.%.%.%.%.%.%.%.%.%.%.%.%.%.%.%.%.%.%.",
"S H ,.s.S.S.S.S.9.$.S S S #.r.S.S.S.S.S.S.9.o.S S S S W %.%.%.%.%.%.%.) S S H %.%.%.%.%.%.%.%.%.^ S ",
"G L ) 3.v.v.v.v.*.~ G G G ) &.v.v.v.v.v.v.*.~ G G G G Q ) @.%.%.%.%.` ~ G G L ) X.%.%.%.%.%.%.) Q G ",
"%.X.A Q %.%.%.%.G S %.%.%.S H %.%.%.%.%.%.G H %.%.%.%.~ A ) %.%.%.%.S H %.%.X.A Q %.%.%.%.%.%.A L %.",
"%.@.~ Q L L L L ~ ^ %.%.%.^ Q L L L L L L ~ ^ %.%.%.%.X.~ L L L L L ~ ^ %.%.@.~ Q L L L L L L ~ ) %.",
"%.%.%.! S S S S ) %.%.%.%.%._ S S S S S S ) %.%.@.X.X.@.%.L S S S S X.@.X.X.X.%.! S S S S S S %.@.X.",
"%.%.%.%.%.%.%.%.%.%.%.%.%.%.%.%.%.%.%.%.%.%.%.%.L A A L %.%.%.%.%.%.%.) A A S %.%.%.%.%.%.%.%.%.~ A ",
"Q ! %.%.%.%.%.%.%.@.Q Q Q @.%.%.%.%.%.%.%.%.X.Q 6 O O 6 Q X.%.%.%.%.! Y O O $ Q ) %.%.%.%.%.%.Q P O ",
"A S %.%.%.%.%.%.%.X.A A A X.%.%.%.%.%.%.%.%.) A ,     < A ) %.%.%.%.S *     : A Q %.%.%.%.%.%.A @   ",
"A A S ! %.%.%.%.J S A A A S L %.%.%.%.%.%.J S A Z N N @ ; B S S S S > < N N & ; 5 S S S S S S ; < N ",
"A A A E ) ) ) ) D A A A A A F ) ) ) ) ) ) D A A A A A % > # = = = = > 1 A A N > O = = = = = = > + A ",
"A A A A A A A A A A A A A A A A A A A A A A A A A A A A A >         V A A A A A O             A A A ",
"A A A A A A A A A A A A A A A A A A A A A A A A A A A A A * @ @ @ @ C A A A A A - @ @ @ @ @ @ A A A ",
"A A A A A A A A A A A A A A A A A A A A A A A A A A A A A A A A A A A A A A A A A A A A A A A A A A "
};
