/* XPM */
static char *result[] = {
/* columns rows colors chars-per-pixel */
"50 50 53 1 ",
"  c #0B2E43",
". c #0C2E44",
"X c #0D2E44",
"o c #1D4547",
"O c #164945",
"+ c #1D5046",
"@ c #1F5347",
"# c #1B5646",
"$ c #205747",
"% c #265149",
"& c #1F6347",
"* c #256048",
"= c #276348",
"- c #296648",
"; c #2D6848",
": c #396F4C",
"> c #2B7148",
", c #2E7348",
"< c #307649",
"1 c #3D714C",
"2 c #3D714D",
"3 c #337949",
"4 c #377B4A",
"5 c #41734D",
"6 c #40734E",
"7 c #33984B",
"8 c #389D4C",
"9 c #3AA04C",
"0 c #3DA34C",
"q c #43824D",
"w c #4A864F",
"e c #4E8850",
"r c #528A51",
"t c #49B14D",
"y c #4BB44E",
"u c #50B94E",
"i c #51B84F",
"p c #55BF4E",
"a c #56BE50",
"s c #5AC54F",
"d c #5DC351",
"f c #62C951",
"g c #65CB52",
"h c #66CB52",
"j c #69CD53",
"k c #79D557",
"l c #7DD758",
"z c #81D959",
"x c #89DD5B",
"c c #89DE5B",
"v c #91E25D",
"b c #99E65F",
"n c None",
/* pixels */
"..................................................",
".%5555555555555555555555555555555551---5:----255o.",
".rbbbbbbbbbbbbbbbbbbbbbbbbbbbbbbbbbvsssbzssssxbb6.",
".4fvbbbbbbbblfbbbbcffffffffffffffffd888fi8888aff;.",
".3svbbbbbbbbksbbbbcssssssssssssssssp777sy7777uss-.",
".3svbbbbbbbbksbbbbcssssssssssssssssp777sy7777uss-.",
".3svbbbbbbbbksbbbbcssssssssssssssssp777sy7777uss-.",
".3svbbbbbbbbksbbbbcssssssssssssssssp777sy7777uss-.",
".3svbbbbbbbbksbbbbcssssssssssssssssp777sy7777uss-.",
".3svbbbbbbbbksbbbbcssssssssssssssssp777sy7777uss-.",
".3svbbbbbbbbksbbbbcssssssssssssssssp777sy7777uss-.",
".3svbbbbbbbbksbbbbcssssssssssssssssp777sy7777uss-.",
".3svbbbbbbbbksbbbbcssssssssssssssssp777sy7777uss-.",
".3svbbbbbbbbksbbbbcssssssssssssssssp777sy7777uss-.",
".3svbbbbbbbbksbbbbcssssssssssssssssp777sy7777uss-.",
".3svbbbbbbbbksbbbbcssssssssssssssssp777sy7777uss-.",
".3svbbbbbbbbksbbbbcssssssssssssssssp777sy7777uss-.",
".3svbbbbbbbbksbbbbcssssssssssssssssp777sy7777uss-.",
".3svbbbbbbbbksbbbbcssssssssssssssssp777sy7777uss-.",
".3svbbbbbbbbksbbbbcssssssssssssssssp777sy7777uss-.",
".3svbbbbbbbbksbbbbcssssssssssssssssp777sy7777uss-.",
".3svbbbbbbbbksbbbbcssssssssssssssssp777sy7777uss-.",
".3svbbbbbbbbksbbbbcssssssssssssssssp777sy7777uss-.",
".*3errrrrrrrq3rrrrw3333333333333333<&&&3>&&&&,33$.",
"n...............................................nn",
"nnnX#7777777777777777777777777777777777777777O nnn",
"nnnX#7777777777777777777777777777777777777777O nnn",
"nnnX#7777777777777777777777777777777777777777O nnn",
"nnnX=pppppppppppppppppppppppppp977tu777777upp+ nnn",
"nnnX-sgjjjjjfsjhsssssssssssssss077yp777777pss@ nnn",
"nnnX-sxbbbbbksbzsssssssssssssss077yp777777pss@ nnn",
"nnnX-sxbbbbbksbzsssssssssssssss077yp777777pss@ nnn",
"nnnX-sxbbbbbksbzsssssssssssssss077yp777777pss@ nnn",
"nnnX-sxbbbbbksbzsssssssssssssss077yp777777pss@ nnn",
"nnnX-sxbbbbbksbzsssssssssssssss077yp777777pss@ nnn",
"nnnX-sxbbbbbksbzsssssssssssssss077yp777777pss@ nnn",
"nnnX-sxbbbbbksbzsssssssssssssss077yp777777pss@ nnn",
"nnnX-sxbbbbbksbzsssssssssssssss077yp777777pss@ nnn",
"nnnX-sxbbbbbksbzsssssssssssssss077yp777777pss@ nnn",
"nnnX-sxbbbbbksbzsssssssssssssss077yp777777pss@ nnn",
"nnnX-sxbbbbbksbzsssssssssssssss077yp777777pss@ nnn",
"nnnX-sxbbbbbksbzsssssssssssssss077yp777777pss@ nnn",
"nnnX-sxbbbbbksbzsssssssssssssss077yp777777pss@ nnn",
"nnnX-sxbbbbbksbzsssssssssssssss077yp777777pss@ nnn",
"nnnX-sxbbbbbksbzsssssssssssssss077yp777777pss@ nnn",
"nnnX-sxbbbbbksbzsssssssssssssss077yp777777pss@ nnn",
"nnnX-sxbbbbbksbzsssssssssssssss077yp777777pss@ nnn",
"nnnX-sxbbbbbksbzsssssssssssssss077yp777777pss@ nnn",
"nnnX-sxbbbbbksbzsssssssssssssss077yp777777pss@ nnn",
"nnnX-sxbbbbbksbzsssssssssssssss077yp777777pss@ nnn"
};
