/* XPM */
static char * cros_xpm[] = {
"25 25 2 1",
" 	c None",
".	c #00FF11",
"            .            ",
"            .            ",
"            .            ",
"            .            ",
"            .            ",
"            .            ",
"            .            ",
"            .            ",
"                         ",
"                         ",
"                         ",
"                         ",
"........         ........",
"                         ",
"                         ",
"                         ",
"                         ",
"            .            ",
"            .            ",
"            .            ",
"            .            ",
"            .            ",
"            .            ",
"            .            ",
"            .            "};
