/* XPM */
static char *result[] = {
/* columns rows colors chars-per-pixel */
"50 50 8 1 ",
"  c gray30",
". c #C1272D",
"X c #CA565B",
"o c #CA575B",
"O c #D38689",
"+ c #DDB6B7",
"@ c #DCB6B8",
"# c #E6E6E6",
/* pixels */
"......@#####O.....X######......@#####O.....X######",
"......@#####O.....X######......@#####O.....X######",
"......@#####O.....X######......@#####O.....X######",
"......@#####O.....X######......@#####O.....X######",
"......@#####O.....X######......@#####O.....X######",
"                                                  ",
"                                                  ",
"                                                  ",
"                                                  ",
"                                                  ",
"                                                  ",
"                                                  ",
"                                                  ",
"                                                  ",
"                                                  ",
"                                                  ",
"                                                  ",
"                                                  ",
"                                                  ",
"                                                  ",
"                                                  ",
"                                                  ",
"                                                  ",
"                                                  ",
"                                                  ",
"                                                  ",
"                                                  ",
"                                                  ",
"                                                  ",
"                                                  ",
"                                                  ",
"                                                  ",
"                                                  ",
"                                                  ",
"                                                  ",
"                                                  ",
"                                                  ",
"                                                  ",
"                                                  ",
"                                                  ",
"                                                  ",
"                                                  ",
"                                                  ",
"                                                  ",
"                                                  ",
"######o.....O#####+......######o.....O#####+......",
"######o.....O#####+......######o.....O#####+......",
"######o.....O#####+......######o.....O#####+......",
"######o.....O#####+......######o.....O#####+......",
"######o.....O#####+......######o.....O#####+......"
};
