/* XPM */
static char *result[] = {
/* columns rows colors chars-per-pixel */
"51 51 146 2 ",
"   c #1E1E1E",
".  c #281E1E",
"X  c #281E1F",
"o  c #321E1F",
"O  c #321F1F",
"+  c #321F20",
"@  c #3C1F20",
"#  c #2A2A2A",
"$  c #2F2F2F",
"%  c #342A2B",
"&  c gray21",
"*  c #373737",
"=  c #393939",
"-  c #461F21",
";  c #462021",
":  c #512123",
">  c #5B2123",
",  c #5B2124",
"<  c #5B2224",
"1  c #652224",
"2  c #6F2225",
"3  c #702326",
"4  c #7A2226",
"5  c #722E30",
"6  c #6A3A3C",
"7  c #6C3C3E",
"8  c #793E41",
"9  c #783F41",
"0  c #793F41",
"q  c #434343",
"w  c #444444",
"e  c #4D4444",
"r  c gray29",
"t  c gray30",
"y  c gray31",
"u  c #584546",
"i  c #594546",
"p  c #544B4B",
"a  c #5C4849",
"s  c #505050",
"d  c gray34",
"f  c #5E5455",
"g  c gray36",
"h  c #634647",
"j  c #6A4345",
"k  c #6A4445",
"l  c #7B4A4D",
"z  c #606060",
"x  c DimGray",
"c  c #6A6A6A",
"v  c #73696A",
"b  c #7D6A6B",
"n  c #786E6F",
"m  c gray45",
"M  c #767676",
"N  c gray48",
"B  c gray49",
"V  c #832327",
"C  c #842327",
"Z  c #8E2428",
"A  c #982429",
"S  c #982529",
"D  c #84373A",
"F  c #8E373B",
"G  c #873A3D",
"H  c #803C3F",
"J  c #8E383B",
"K  c #953639",
"L  c #A3252B",
"P  c #AD262B",
"I  c #AD262C",
"U  c #B7262C",
"Y  c #B7272C",
"T  c #B7272D",
"R  c #B0282E",
"E  c #BA292F",
"W  c #A92B30",
"Q  c #AB2E33",
"!  c #AB2F33",
"~  c #B32B31",
"^  c #A43035",
"/  c #A43135",
"(  c #B5373D",
")  c #B5383C",
"_  c #C1272D",
"`  c #C33338",
"'  c #C53F44",
"]  c #C63F44",
"[  c #984B4D",
"{  c #AB5458",
"}  c #A86E70",
"|  c #C84A4F",
" . c #C84B50",
".. c #CA565B",
"X. c #CA575B",
"o. c #CC6266",
"O. c #CC6367",
"+. c #CE6F72",
"@. c #CF6F72",
"#. c #D17A7D",
"$. c #D17A7E",
"%. c #818181",
"&. c gray51",
"*. c #868686",
"=. c #8E8E8E",
"-. c gray56",
";. c #909090",
":. c gray60",
">. c #9B9B9B",
",. c #A0A0A0",
"<. c gray64",
"1. c #A4A4A4",
"2. c #A7A7A7",
"3. c gray66",
"4. c #ACACAC",
"5. c gray68",
"6. c #B4B4B4",
"7. c #BFB5B5",
"8. c gray75",
"9. c #D38689",
"0. c #D4878A",
"q. c #D59295",
"w. c #D89EA0",
"e. c #DAAAAB",
"r. c #C8B5B6",
"t. c #C7BDBE",
"y. c #DDB6B7",
"u. c #DDB6B8",
"i. c #C0C0C0",
"p. c #C6C6C6",
"a. c #CAC1C1",
"s. c #CACACA",
"d. c #CDCDCD",
"f. c #CECECE",
"g. c #D5C2C3",
"h. c #D1C7C7",
"j. c #DEC2C3",
"k. c #D8C4C5",
"l. c #D8C4C6",
"z. c LightGray",
"x. c #DADADA",
"c. c gainsboro",
"v. c #E1CECF",
"b. c #E2CECF",
"n. c #E4DADB",
"m. c #E6E6E6",
/* pixels */
"c m.m.x.d.d.6.6.2.=.b , - .                                                                           ",
"c m.m.m.m.m.m.m.m.m.+._ _ _ Y S V 1 - .                                                               ",
"w m B *.*.:.:.4.i.t.E _ _ _ _ _ _ _ _ o.i.=.g #                                                       ",
"$ t t t t t t t t t t p j 7 D ^ R _ ] n.m.m.m.m.6.M &                                                 ",
"$ t t t t t t t t t t t t t t t t i n ,.p.m.m.m.m.m.m.d.6 O                                           ",
"$ t t t t t t t t t t t t t t t t t t t t z *.2.x.m.n.@._ _ S >                                       ",
"$ t t t t t t t t t t t t t t t t t t t t t t t r N [ _ _ _ _ _ P > O                                 ",
"$ t t t t t t t t t t t t t t t t t t t t t t t t t t a 8 ~ _ _ _ _ P 5 &                             ",
"$ t t t t t t t t t t t t t t t t t t t t t t t t t t t t t 8 W _ ` 9.n.d.x                           ",
"$ t t t t t t t t t t t t t t t t t t t t t t t t t t t t t t t l h.m.m.m.m.d.&                       ",
"$ t t t t t t t t t t t t t t t t t t t t t t t t t t t t t t t t t *.z.m.m.m.m.%.                    ",
"$ t t t t t t t t t t t t t t t t t t t t t t t t t t t t t t t t t t z 5.m.m.m.m.r.O                 ",
"$ t t t t t t t t t t t t t t t t t t t t t t t t t t t t t t t t t t t t ;.l.0.X._ P @               ",
"$ t t t t t t t t t t t t t t t t t t t t t t t t t t t t t t t t t t t t t a ~ _ _ _ U ,             ",
"$ t t t t t t t t t t t t t t t t t t t t t t t t t t t t t t t t t t t t t t a ~ _ _ _ _ ,           ",
"$ t t t t t t t t t t t t t t t t t t t t t t t t t t t t t t t t t t t t t t t a ~ _ _ _ U @         ",
"$ t t t t t t t t t t t t t t t t t t t t t t t t t t t t t t t t t t t t t t t t a ( o.$.e.a.#       ",
"$ t t t t t t t t t t t t t t t t t t t t t t t t t t t t t t t t t t t t t t t t t m m.m.m.m.2.      ",
"$ t t t t t t t t t t t t t t t t t t t t t t t t t t t t t t t t t t t t t t t t t t 1.m.m.m.m.y     ",
"$ t t t t t t t t t t t t t t t t t t t t t t t t t t t t t t t t t t t t t t t t t t d c.m.m.m.6.    ",
"$ t t t t t t t t t t t t t t t t t t t t t t t t t t t t t t t t t t t t t t t t t t t :.m.m.m.n.e   ",
"$ t t t t t t t t t t t t t t t t t t t t t t t t t t t t t t t t t t t t t t t t t t t d  .' ` _ V   ",
"$ t t t t t t t t t t t t t t t t t t t t t t t t t t t t t t t t t t t t t t t t t t t t ^ _ _ _ U   ",
"$ t t t t t t t t t t t t t t t t t t t t t t t t t t t t t t t t t t t t t t t t t t t t F _ _ _ _ o ",
"$ t t t t t t t t t t t t t t t t t t t t t t t t t t t t t t t t t t t t t t t t t t t t 8 _ _ _ _ ; ",
"$ t t t t t t t t t t t t t t t t t t t t t t t t t t t t t t t t t t t t t t t t t t t t 8 _ _ _ _ ; ",
"$ t t t t t t t t t t t t t t t t t t t t t t t t t t t t t t t t t t t t t t t t t t t t H _ _ _ _ ; ",
"$ t t t t t t t t t t t t t t t t t t t t t t t t t t t t t t t t t t t t t t t t t t t t F _ _ _ _ X ",
"$ t t t t t t t t t t t t t t t t t t t t t t t t t t t t t t t t t t t t t t t t t t t t Q _ _ _ I   ",
"$ t t t t t t t t t t t t t t t t t t t t t t t t t t t t t t t t t t t t t t t t t t t f ..` _ _ C   ",
"$ t t t t t t t t t t t t t t t t t t t t t t t t t t t t t t t t t t t t t t t t t t t 5.m.m.m.j.%   ",
"$ t t t t t t t t t t t t t t t t t t t t t t t t t t t t t t t t t t t t t t t t t t z m.m.m.m.2.    ",
"$ t t t t t t t t t t t t t t t t t t t t t t t t t t t t t t t t t t t t t t t t t t 8.m.m.m.m.&     ",
"$ t t t t t t t t t t t t t t t t t t t t t t t t t t t t t t t t t t t t t t t t t :.m.m.m.m.&.      ",
"$ t t t t t t t t t t t t t t t t t t t t t t t t t t t t t t t t t t t t t t t t 9 ` O.q.u.7.        ",
"$ t t t t t t t t t t t t t t t t t t t t t t t t t t t t t t t t t t t t t t t k E _ _ _ I +         ",
"$ t t t t t t t t t t t t t t t t t t t t t t t t t t t t t t t t t t t t t t 9 _ _ _ _ I +           ",
"$ t t t t t t t t t t t t t t t t t t t t t t t t t t t t t t t t t t t t t G _ _ _ _ I +             ",
"$ t t t t t t t t t t t t t t t t t t t t t t t t t t t t t t t t t t t z 8.v.w.| _ A X               ",
"$ t t t t t t t t t t t t t t t t t t t t t t t t t t t t t t t t t t -.c.m.m.m.m.v                   ",
"$ t t t t t t t t t t t t t t t t t t t t t t t t t t t t t t t t m s.m.m.m.m.i.q                     ",
"$ t t t t t t t t t t t t t t t t t t t t t t t t t t t t t t k { b.m.m.m.x.&.                        ",
"$ t t t t t t t t t t t t t t t t t t t t t t t t t t t p H / _ _ _ @.g.&.#                           ",
"$ t t t t t t t t t t t t t t t t t t t t t t t t t k J E _ _ _ _ T 3 X                               ",
"$ t t t t t t t t t t t t t t t t t t t t t d m <.k.' _ _ _ _ L 3 X                                   ",
"$ t t t t t t t t t t t t t t t t t d m :.8.c.m.m.m.m.#.T 4 ;                                         ",
"$ t t t t t t t t t t t p h 0 G K ) b.m.m.m.m.m.m.f.=.s                                               ",
"= m m B *.*.:.<.4.} ! E _ _ _ _ _ _  .n.m.f.>.M *                                                     ",
"M m.m.m.m.m.m.m.m.y._ _ _ _ _ _ I Z 2 u *                                                             ",
"&.m.m.m.m.x.f.f.6.3.C 2 < : O                                                                         ",
"                                                                                                      "
};
