/* XPM */
static char *result[] = {
/* columns rows colors chars-per-pixel */
"50 50 120 2 ",
"   c #1E1E1E",
".  c #281F1F",
"X  c #321F20",
"o  c #2A2A2A",
"O  c #3C2020",
"+  c #342B2B",
"@  c #3E2C2C",
"#  c #373737",
"$  c #512123",
"%  c #5B2224",
"&  c #652224",
"*  c #652225",
"=  c #792326",
"-  c #7A2226",
";  c #7A2326",
":  c #783F41",
">  c #434343",
",  c #4D4444",
"<  c gray30",
"1  c gray31",
"2  c #544B4B",
"3  c #5B4849",
"4  c #5B4949",
"5  c #505050",
"6  c gray34",
"7  c #624546",
"8  c #634647",
"9  c #6A4345",
"0  c #724143",
"q  c #6C4F51",
"w  c #645B5B",
"e  c #606060",
"r  c DimGray",
"t  c gray45",
"y  c gray46",
"u  c #767676",
"i  c #7C7C7C",
"p  c gray49",
"a  c #842327",
"s  c #8D2328",
"d  c #8E2428",
"f  c #8B3438",
"g  c #8E373B",
"h  c #873A3D",
"j  c #803C3F",
"k  c #933236",
"l  c #9D3337",
"z  c #A3262A",
"x  c #AD262B",
"c  c #AD262C",
"v  c #B7272C",
"b  c #BA292F",
"n  c #AB2E33",
"m  c #AB2F33",
"M  c #B32B31",
"N  c #B22C31",
"B  c #A43035",
"V  c #A43135",
"C  c #C1272D",
"Z  c #C33338",
"A  c #C33339",
"S  c #C53F44",
"D  c #C63F44",
"F  c #894549",
"G  c #894648",
"H  c #855456",
"J  c #A0494D",
"K  c #826E6F",
"L  c #90696B",
"P  c #A96E70",
"I  c #A17173",
"U  c #C84A50",
"Y  c #C0565A",
"T  c #CA565B",
"R  c #CC6366",
"E  c #CC6367",
"W  c #CF6E72",
"Q  c #CE6F72",
"!  c #C77A7D",
"~  c #D17A7E",
"^  c gray51",
"/  c #868686",
"(  c #8E8E8E",
")  c gray56",
"_  c #978D8E",
"`  c #9E8B8C",
"'  c gray60",
"]  c #9B9B9B",
"[  c #AE9092",
"{  c gray64",
"}  c #ACACAC",
"|  c #B4B4B4",
" . c #B6B6B6",
".. c gray75",
"X. c #D38689",
"o. c #D3868A",
"O. c #D48789",
"+. c #D4878A",
"@. c #CE9E9F",
"#. c #D59294",
"$. c #D59295",
"%. c #D69295",
"&. c #D89EA0",
"*. c #D89EA1",
"=. c #DAAAAC",
"-. c #DBAAAD",
";. c #DCB6B7",
":. c #C0C0C0",
">. c #C1C1C1",
",. c gray79",
"<. c #CDCDCD",
"1. c #CECECE",
"2. c #DFC2C3",
"3. c LightGray",
"4. c #DADADA",
"5. c gainsboro",
"6. c #E1CECF",
"7. c #E2CECF",
"8. c #E4DADB",
"9. c #E6E6E6",
/* pixels */
"C C C C B < < < < < < < < < < < < < < < < < < < < < < < < < < < < < < < < < < < < < ..9.9.8.@.      ",
"C C C C B < < < < < < < < < < < < < < < < < < < < < < < < < < < < < < < < < < < < < I E S U X.,     ",
"v C C C B < < < < < < < < < < < < < < < < < < < < < < < < < < < < < < < < < < < < < j T ;.8.R ! 7   ",
"x C C C N < < < < < < < < < < < < < < < < < < < < < < < < < < < < < < < < < < < < < 6 5.-.Z o.*.W Y ",
"z C C C N < < < < < < < < < < < < < < < < < < < < < < < < < < < < < < < < < < < < < < H C o.6.S 7.Z ",
"s C C C C 2 < < < < < < < < < < < < < < < < < < < < < < < < < < < < < < < < < < < < < < L 9.Q T 6.C ",
"= C C C C 4 < < < < < < < < < < < < < < < < < < < < < < < < < < < < < < < < < < < < < < < K M &.=.C ",
"& C C C C 0 < < < < < < < < < < < < < < < < < < < < < < < < < < < < < < < < < < < < < < < < < / P B ",
"$ C C C C G < < < < < < < < < < < < < < < < < < < < < < < < < < < < < < < < < < < < < < < < < < < < ",
". W #.;.8. .< < < < < < < < < < < < < < < < < < < < < < < < < < < < < < < < < < < < < < < < < < < < ",
"  1.9.9.9.5.< < < < < < < < < < < < < < < < < < < < < < < < < < < < < < < < < < < < < < < < < < < < ",
"  ] 9.9.9.9.r < < < < < < < < < < < < < < < < < < < < < < < < < < < < < < < < < < < < < < < < < < < ",
"  u 9.9.9.9.) < < < < < < < < < < < < < < < < < < < < < < < < < < < < < < < < < < < < < < < < < < < ",
"  # 9.9.9.9.:.< < < < < < < < < < < < < < < < < < < < < < < < < < < < < < < < < < < < < < < < < < < ",
"    1.9.9.9.9.6 < < < < < < < < < < < < < < < < < < < < < < < < < < < < < < < < < < < < < < < < < < ",
"    ^ 9.9.9.9.) < < < < < < < < < < < < < < < < < < < < < < < < < < < < < < < < < < < < < < < < < < ",
"    1 9.9.9.9.:.< < < < < < < < < < < < < < < < < < < < < < < < < < < < < < < < < < < < < < < < < < ",
"      >.9.9.8.$.q < < < < < < < < < < < < < < < < < < < < < < < < < < < < < < < < < < < < < < < < < ",
"      ^ 2.+.Z C k < < < < < < < < < < < < < < < < < < < < < < < < < < < < < < < < < < < < < < < < < ",
"      . v C C C C 3 < < < < < < < < < < < < < < < < < < < < < < < < < < < < < < < < < < < < < < < < ",
"        = C C C C f < < < < < < < < < < < < < < < < < < < < < < < < < < < < < < < < < < < < < < < < ",
"        X C C C C C 3 < < < < < < < < < < < < < < < < < < < < < < < < < < < < < < < < < < < < < < < ",
"          a C C C C B < < < < < < < < < < < < < < < < < < < < < < < < < < < < < < < < < < < < < < < ",
"          X C C C C C 9 < < < < < < < < < < < < < < < < < < < < < < < < < < < < < < < < < < < < < < ",
"            ; C C C C N 2 < < < < < < < < < < < < < < < < < < < < < < < < < < < < < < < < < < < < < ",
"            . v C C C T ` < < < < < < < < < < < < < < < < < < < < < < < < < < < < < < < < < < < < < ",
"              * C Z %.9.9.t < < < < < < < < < < < < < < < < < < < < < < < < < < < < < < < < < < < < ",
"                J 7.9.9.9.3.e < < < < < < < < < < < < < < < < < < < < < < < < < < < < < < < < < < < ",
"                # 4.9.9.9.9.:.< < < < < < < < < < < < < < < < < < < < < < < < < < < < < < < < < < < ",
"                  y 9.9.9.9.9.{ < < < < < < < < < < < < < < < < < < < < < < < < < < < < < < < < < < ",
"                    ( 9.9.9.9.9.' < < < < < < < < < < < < < < < < < < < < < < < < < < < < < < < < < ",
"                    o >.9.9.9.9.9.' < < < < < < < < < < < < < < < < < < < < < < < < < < < < < < < < ",
"                      # <.9.9.9.9.O.h < < < < < < < < < < < < < < < < < < < < < < < < < < < < < < < ",
"                        # 4.9.9.O.C C h < < < < < < < < < < < < < < < < < < < < < < < < < < < < < < ",
"                          > 4.O.C C C C g < < < < < < < < < < < < < < < < < < < < < < < < < < < < < ",
"                            @ v C C C C C n 3 < < < < < < < < < < < < < < < < < < < < < < < < < < < ",
"                              O v C C C C C N 9 < < < < < < < < < < < < < < < < < < < < < < < < < < ",
"                                X c C C C C C C F < < < < < < < < < < < < < < < < < < < < < < < < < ",
"                                  X c C C C C C ;.3.i < < < < < < < < < < < < < < < < < < < < < < < ",
"                                      ; C C C ~ 9.9.9.} e < < < < < < < < < < < < < < < < < < < < < ",
"                                        % v D 8.9.9.9.9.9.} e < < < < < < < < < < < < < < < < < < < ",
"                                          X [ 9.9.9.9.9.9.9.9.} w < < < < < < < < < < < < < < < < < ",
"                                              r <.9.9.9.9.9.9.9.Q m : 3 < < < < < < < < < < < < < < ",
"                                                # ] 9.9.9.9.9.6.C C C C V j 8 < < < < < < < < < < < ",
"                                                    # ] 9.9.9.*.C C C C C C C b l _ p r < < < < < < ",
"                                                        # ] 9.S C C C C C C C C A 9.9.9.9.5.,.......",
"                                                            + % c C C C C C C C T 9.9.9.9.9.9.9.9.9.",
"                                                                  O - c C C C C ~ 9.9.9.9.9.9.9.9.9.",
"                                                                        X % d c &.9.9.9.9.9.9.9.9.9.",
"                                                                                o 5 u ( | | 1.4.9.9."
};
