/* XPM */
static char *result[] = {
/* columns rows colors chars-per-pixel */
"50 50 141 2 ",
"   c #1E1E1E",
".  c #281F1F",
"X  c #321F1F",
"o  c #321F20",
"O  c #3C1F20",
"+  c #2A2A2A",
"@  c #3E2B2C",
"#  c #353535",
"$  c gray21",
"%  c #373737",
"&  c gray23",
"*  c gray24",
"=  c #461F21",
"-  c #462021",
";  c #512123",
":  c #5B2224",
">  c #5C2224",
",  c #652224",
"<  c #652225",
"1  c #6F2225",
"2  c #702326",
"3  c #792226",
"4  c #792326",
"5  c #712E31",
"6  c #7D3A3C",
"7  c #783E41",
"8  c #783F41",
"9  c #414141",
"0  c #434343",
"q  c gray28",
"w  c #484848",
"e  c gray29",
"r  c gray30",
"t  c gray31",
"y  c #514848",
"u  c #544B4B",
"i  c #5B4849",
"p  c #505050",
"a  c gray34",
"s  c #5D5D5D",
"d  c #674042",
"f  c #624647",
"g  c #634647",
"h  c #6A4345",
"j  c #6A4445",
"k  c #6C4F51",
"l  c #625050",
"z  c #606060",
"x  c DimGray",
"c  c #6A6A6A",
"v  c gray44",
"b  c gray45",
"n  c gray46",
"m  c #797979",
"M  c #7C7C7C",
"N  c gray49",
"B  c #832327",
"V  c #842327",
"C  c #8E2428",
"Z  c #982429",
"A  c #99252A",
"S  c #873A3D",
"D  c #803C3F",
"F  c #8E383B",
"G  c #9C3337",
"H  c #9D3337",
"J  c #953539",
"K  c #A3262A",
"L  c #A3262B",
"P  c #AD262C",
"I  c #B7272C",
"U  c #B7272D",
"Y  c #B0292E",
"T  c #BA292F",
"R  c #A82B30",
"E  c #AB2E33",
"W  c #AB2F33",
"Q  c #B22B31",
"!  c #B22C31",
"~  c #A43035",
"^  c #A43135",
"/  c #C1272D",
"(  c #C33338",
")  c #C33339",
"_  c #C53F44",
"`  c #C63F44",
"'  c #B44A4E",
"]  c #BB5B5F",
"[  c #AF6D6F",
"{  c #C0565A",
"}  c #CC6367",
"|  c #C56569",
" . c #CF6E72",
".. c #C07476",
"X. c #D17A7D",
"o. c #D17A7E",
"O. c #D17B7E",
"+. c gray51",
"@. c #868686",
"#. c #8D8D8D",
"$. c #8E8E8E",
"%. c #968384",
"&. c #9E8C8C",
"*. c gray60",
"=. c #9A9A9A",
"-. c #9B9B9B",
";. c #A79595",
":. c #A0A0A0",
">. c gray64",
",. c #A7A7A7",
"<. c #ACACAC",
"1. c gray68",
"2. c #B4B4B4",
"3. c #B6B6B6",
"4. c gray75",
"5. c #C98689",
"6. c #C58B8D",
"7. c #D38689",
"8. c #D48789",
"9. c #C49495",
"0. c #CB9294",
"q. c #D69295",
"w. c #D79EA0",
"e. c #D89EA0",
"r. c #D89EA1",
"t. c #DDB6B7",
"y. c #DDB6B8",
"u. c #C0C0C0",
"i. c #CDCDCD",
"p. c #CECECE",
"a. c #DFC2C3",
"s. c #DFC2C4",
"d. c LightGray",
"f. c gray85",
"g. c #DADADA",
"h. c gainsboro",
"j. c #E1CECF",
"k. c #E2CECF",
"l. c #E4DADA",
"z. c #E4DADB",
"x. c #E6E6E6",
/* pixels */
"+.+.w # # # # # # # # # & & & & & & & & & & & * 9 9 9 9 9 9 9 9 9 9 q q q q q q q q q q q r r b x.x.",
"x.x.b r r r r r r r r r r r r r r r r r r r r r r r r r r r r r r r r r r r r r r r r r r r r b x.x.",
"x.x.M r r r r r r r r r r r r r r r r r r r r r r r r r r r r r r r r r r r r r r r r r r r r N x.x.",
"x.x.@.r r r r r r r r r r r r r r r r r r r r r r r r r r r r r r r r r r r r r r r r r r r r @.x.x.",
"p.x.@.r r r r r r r r r r r r r r r r r r r r r r r r r r r r r r r r r r r r r r r r r r r r @.x.f.",
"p.x.*.r r r r r r r r r r r r r r r r r r r r r r r r r r r r r r r r r r r r r r r r r r r r *.x.i.",
"p.x.>.r r r r r r r r r r r r r r r r r r r r r r r r r r r r r r r r r r r r r r r r r r r r *.x.i.",
"2.x.<.r r r r r r r r r r r r r r r r r r r r r r r r r r r r r r r r r r r r r r r r r r r r <.x.2.",
"-.x.u.r r r r r r r r r r r r r r r r r r r r r r r r r r r r r r r r r r r r r r r r r r r r 3.x.2.",
"-.y...r r r r r r r r r r r r r r r r r r r r r r r r r r r r r r r r r r r r r r r r r r r r [ y.=.",
"5 / T r r r r r r r r r r r r r r r r r r r r r r r r r r r r r r r r r r r r r r r r r r r r Y / 1 ",
": / / u r r r r r r r r r r r r r r r r r r r r r r r r r r r r r r r r r r r r r r r r r r r / / , ",
"= / / g r r r r r r r r r r r r r r r r r r r r r r r r r r r r r r r r r r r r r r r r r r f / / ; ",
"o / / 8 r r r r r r r r r r r r r r r r r r r r r r r r r r r r r r r r r r r r r r r r r r d / / O ",
"  I / S r r r r r r r r r r r r r r r r r r r r r r r r r r r r r r r r r r r r r r r r r r 6 / /   ",
"  K / H r r r r r r r r r r r r r r r r r r r r r r r r r r r r r r r r r r r r r r r r r r G / L   ",
"  B / ! r r r r r r r r r r r r r r r r r r r r r r r r r r r r r r r r r r r r r r r r r r E / Z   ",
"  , / / a r r r r r r r r r r r r r r r r r r r r r r r r r r r r r r r r r r r r r r r r e ( / 3   ",
"  ; ` a.M r r r r r r r r r r r r r r r r r r r r r r r r r r r r r r r r r r r r r r r r b j._ ;   ",
"  . k.x.>.r r r r r r r r r r r r r r r r r r r r r r r r r r r r r r r r r r r r r r r r #.x.j.@   ",
"    p.x.u.r r r r r r r r r r r r r r r r r r r r r r r r r r r r r r r r r r r r r r r r 4.x.i.    ",
"    -.x.x.a r r r r r r r r r r r r r r r r r r r r r r r r r r r r r r r r r r r r r r e g.x.,.    ",
"    c x.x.b r r r r r r r r r r r r r r r r r r r r r r r r r r r r r r r r r r r r r r v x.x.n     ",
"    % x.x.>.r r r r r r r r r r r r r r r r r r r r r r r r r r r r r r r r r r r r r r :.x.x.0     ",
"      p.x.h.r r r r r r r r r r r r r r r r r r r r r r r r r r r r r r r r r r r r r r d.x.i.      ",
"      $.x.x.k r r r r r r r r r r r r r r r r r r r r r r r r r r r r r r r r r r r r l z.x.=.      ",
"      t x.8.F r r r r r r r r r r r r r r r r r r r r r r r r r r r r r r r r r r r r J O.x.s       ",
"        0./ T u r r r r r r r r r r r r r r r r r r r r r r r r r r r r r r r r r r r Q / 5.        ",
"        4 / / D r r r r r r r r r r r r r r r r r r r r r r r r r r r r r r r r r r 7 / / V         ",
"        - / / ~ r r r r r r r r r r r r r r r r r r r r r r r r r r r r r r r r r r ^ / / -         ",
"          A / / h r r r r r r r r r r r r r r r r r r r r r r r r r r r r r r r r i / / P           ",
"          1 / / ~ r r r r r r r r r r r r r r r r r r r r r r r r r r r r r r r r J / / 1           ",
"          . I / ` b r r r r r r r r r r r r r r r r r r r r r r r r r r r r r r z _ / / o           ",
"            1 / e.u.r r r r r r r r r r r r r r r r r r r r r r r r r r r r r r 1.e./ V             ",
"            . ` x.x.N r r r r r r r r r r r r r r r r r r r r r r r r r r r r m x.x._ o             ",
"              %.x.x.d.a r r r r r r r r r r r r r r r r r r r r r r r r r r r d.x.x.%.              ",
"              % g.x.x.>.r r r r r r r r r r r r r r r r r r r r r r r r r r *.x.x.x.$               ",
"                +.x.x.x.N r r r r r r r r r r r r r r r r r r r r r r r r v x.x.x.=.                ",
"                + i.x.x.| i r r r r r r r r r r r r r r r r r r r r r r i ] x.x.i.$                 ",
"                  t x.l./ ! i r r r r r r r r r r r r r r r r r r r r y Q / z.x.x                   ",
"                    $.r./ / ! i r r r r r r r r r r r r r r r r r r u E / / q.=.                    ",
"                    + ' / / / ! i r r r r r r r r r r r r r r r r i R / / / ' $                     ",
"                      o I / / / 6.@.r r r r r r r r r r r r r r b 9./ / / U o                       ",
"                        - / / / s.x.<.z r r r r r r r r r r a :.x.j./ / / >                         ",
"                          : / ) x.x.x.x.;.j r r r r r r j &.h.x.x.x._ / 2                           ",
"                            ; { x.x.x.x.t./ T ^ H F W T / e.x.x.x.x.} >                             ",
"                              % i.x.x.x.w./ / / / / / / / q.x.x.x.i.0                               ",
"                                + -.x.x.7./ / / / / / / / o.x.x.,.+                                 ",
"                                    % -.X./ / / / / / / /  .2.p                                     ",
"                                        o : C L / / P C < X                                         "
};
