/* XPM */
static char *result[] = {
/* columns rows colors chars-per-pixel */
"51 51 139 2 ",
"   c #1E1E1E",
".  c #281E1E",
"X  c #281E1F",
"o  c #281F1F",
"O  c #321E1F",
"+  c #321F20",
"@  c #2A2A2A",
"#  c gray21",
"$  c #373737",
"%  c #461F21",
"&  c #462021",
"*  c #512023",
"=  c #512123",
"-  c #5B2224",
";  c #5D2D2F",
":  c #5E2D30",
">  c #652224",
",  c #652225",
"<  c #6F2225",
"1  c #702326",
"2  c #792226",
"3  c #7A2226",
"4  c #7D3A3D",
"5  c #6F3E40",
"6  c #793F41",
"7  c #434343",
"8  c #444444",
"9  c #4D4343",
"0  c gray29",
"q  c gray30",
"w  c gray31",
"e  c #584546",
"r  c #594546",
"t  c #524848",
"y  c #544B4B",
"u  c #5B4849",
"i  c #505050",
"p  c #624546",
"a  c #634647",
"s  c #6A4345",
"d  c #6A4445",
"f  c #694C4D",
"g  c #606060",
"h  c #676767",
"j  c DimGray",
"k  c gray45",
"l  c gray46",
"z  c #767676",
"x  c gray49",
"c  c #832327",
"v  c #842327",
"b  c #8D2327",
"n  c #8D2427",
"m  c #8D2328",
"M  c #982429",
"N  c #982529",
"B  c #8C3438",
"V  c #8C3538",
"C  c #8E373B",
"Z  c #87393D",
"A  c #803C3F",
"S  c #8E383B",
"D  c #923236",
"F  c #953539",
"G  c #AC262B",
"H  c #AD262C",
"J  c #B7272C",
"K  c #B7272D",
"L  c #BA292F",
"P  c #A92B30",
"I  c #AB2E33",
"U  c #B22C31",
"Y  c #B32C31",
"T  c #A43035",
"R  c #A43135",
"E  c #C1272D",
"W  c #C33338",
"Q  c #C33339",
"!  c #C53E44",
"~  c #C63F44",
"^  c #974144",
"/  c #995659",
"(  c #8F5F61",
")  c #8A7778",
"_  c #907374",
"`  c #997C7D",
"'  c #AD6063",
"]  c #C84B50",
"[  c #CA565B",
"{  c #CA575B",
"}  c #CC6367",
"|  c #C07376",
" . c #D17A7E",
".. c #D17B7E",
"X. c #CA7D80",
"o. c gray51",
"O. c #868686",
"+. c gray54",
"@. c #8E8E8E",
"#. c gray56",
"$. c #968283",
"%. c #968384",
"&. c #909090",
"*. c gray60",
"=. c #9A9A9A",
"-. c #9B9B9B",
";. c #AF9293",
":. c gray64",
">. c #A7A7A7",
",. c gray66",
"<. c #ACACAC",
"1. c #B4B4B4",
"2. c gray71",
"3. c #B6B6B6",
"4. c #BEB5B5",
"5. c #D3868A",
"6. c #D89EA0",
"7. c #D89EA1",
"8. c #DAAAAC",
"9. c #DBAAAC",
"0. c #C7BEBE",
"q. c #DCB6B7",
"w. c #DDB6B8",
"e. c #C0C0C0",
"r. c #CBC1C1",
"t. c gray79",
"y. c #CACACA",
"u. c #CDCDCD",
"i. c #CECECE",
"p. c #DEC2C3",
"a. c #D7CECE",
"s. c #D0D0D0",
"d. c LightGray",
"f. c #DADADA",
"g. c gainsboro",
"h. c #E1CECF",
"j. c #E2CECF",
"k. c #E4DADB",
"l. c #E6E6E6",
/* pixels */
"                                                                          O * : o.=.>.1.u.u.u.l.l.l.  ",
"                                                              O * 2 b G E E E E w.l.l.l.l.l.l.l.l.l.  ",
"                                                      # z =.r.W E E E E E E E E | y.3.<.*.#.O.O.x k   ",
"                                              @ w @.u.l.l.l.l.8.E E P D 4 5 e 0 q q q q q q q q q q   ",
"                                          % $.f.l.l.l.l.l.f.e.+.f y q q q q q q q q q q q q q q q q   ",
"                                    . < J E Q 7.l.l.s.:.k 0 q q q q q q q q q q q q q q q q q q q q   ",
"                                % n E E E E E L _ k q q q q q q q q q q q q q q q q q q q q q q q q   ",
"                            9 N E E E E E T s q q q q q q q q q q q q q q q q q q q q q q q q q q q   ",
"                        $ -.l.q.[ E K V r q q q q q q q q q q q q q q q q q q q q q q q q q q q q q   ",
"                      l f.l.l.l.l.` t q q q q q q q q q q q q q q q q q q q q q q q q q q q q q q q   ",
"                  $ 1.l.l.l.l.e.h q q q q q q q q q q q q q q q q q q q q q q q q q q q q q q q q q   ",
"                p a.l.l.l.g.&.q q q q q q q q q q q q q q q q q q q q q q q q q q q q q q q q q q q   ",
"              < E E } 7.0.g q q q q q q q q q q q q q q q q q q q q q q q q q q q q q q q q q q q q   ",
"            c E E E E B 0 q q q q q q q q q q q q q q q q q q q q q q q q q q q q q q q q q q q q q   ",
"          c E E E E Z q q q q q q q q q q q q q q q q q q q q q q q q q q q q q q q q q q q q q q q   ",
"        < E E E E Z q q q q q q q q q q q q q q q q q q q q q q q q q q q q q q q q q q q q q q q q   ",
"      l p.6. .[ C q q q q q q q q q q q q q q q q q q q q q q q q q q q q q q q q q q q q q q q q q   ",
"    $ f.l.l.l.d.0 q q q q q q q q q q q q q q q q q q q q q q q q q q q q q q q q q q q q q q q q q   ",
"    -.l.l.l.l.g q q q q q q q q q q q q q q q q q q q q q q q q q q q q q q q q q q q q q q q q q q   ",
"  w l.l.l.l.<.q q q q q q q q q q q q q q q q q q q q q q q q q q q q q q q q q q q q q q q q q q q   ",
"  %.l.l.l.l.g q q q q q q q q q q q q q q q q q q q q q q q q q q q q q q q q q q q q q q q q q q q   ",
"o E E W ] / q q q q q q q q q q q q q q q q q q q q q q q q q q q q q q q q q q q q q q q q q q q q   ",
"= E E E E 6 q q q q q q q q q q q q q q q q q q q q q q q q q q q q q q q q q q q q q q q q q q q q   ",
"< E E E E a q q q q q q q q q q q q q q q q q q q q q q q q q q q q q q q q q q q q q q q q q q q q   ",
"c E E E E q q q q q q q q q q q q q q q q q q q q q q q q q q q q q q q q q q q q q q q q q q q q q   ",
"m E E E L q q q q q q q q q q q q q q q q q q q q q q q q q q q q q q q q q q q q q q q q q q q q q   ",
"c E E E E y q q q q q q q q q q q q q q q q q q q q q q q q q q q q q q q q q q q q q q q q q q q q   ",
"> E E E E a q q q q q q q q q q q q q q q q q q q q q q q q q q q q q q q q q q q q q q q q q q q q   ",
"& E E E E A q q q q q q q q q q q q q q q q q q q q q q q q q q q q q q q q q q q q q q q q q q q q   ",
"o J E E ! ' q q q q q q q q q q q q q q q q q q q q q q q q q q q q q q q q q q q q q q q q q q q q   ",
"  ) h.l.l.l.k q q q q q q q q q q q q q q q q q q q q q q q q q q q q q q q q q q q q q q q q q q q   ",
"  $ l.l.l.l.e.q q q q q q q q q q q q q q q q q q q q q q q q q q q q q q q q q q q q q q q q q q q   ",
"    @.l.l.l.l.x q q q q q q q q q q q q q q q q q q q q q q q q q q q q q q q q q q q q q q q q q q   ",
"    @ u.l.l.l.g.g q q q q q q q q q q q q q q q q q q q q q q q q q q q q q q q q q q q q q q q q q   ",
"      7 j.6...] U y q q q q q q q q q q q q q q q q q q q q q q q q q q q q q q q q q q q q q q q q   ",
"        - E E E E I y q q q q q q q q q q q q q q q q q q q q q q q q q q q q q q q q q q q q q q q   ",
"          1 E E E E U u q q q q q q q q q q q q q q q q q q q q q q q q q q q q q q q q q q q q q q   ",
"            , E E E E U a q q q q q q q q q q q q q q q q q q q q q q q q q q q q q q q q q q q q q   ",
"              & H W [ q.k.*.q q q q q q q q q q q q q q q q q q q q q q q q q q q q q q q q q q q q   ",
"                + 4.l.l.l.l.d.g q q q q q q q q q q q q q q q q q q q q q q q q q q q q q q q q q q   ",
"                    o.l.l.l.l.l.<.g q q q q q q q q q q q q q q q q q q q q q q q q q q q q q q q q   ",
"                      $ -.l.l.l.l.w.^ u q q q q q q q q q q q q q q q q q q q q q q q q q q q q q q   ",
"                          i 1.w.{ E E E F d q q q q q q q q q q q q q q q q q q q q q q q q q q q q   ",
"                              & M E E E E E U A u q q q q q q q q q q q q q q q q q q q q q q q q q   ",
"                                  + v K E E E E 5.t.#.j q q q q q q q q q q q q q q q q q q q q q q   ",
"                                      X - M W 9.l.l.l.l.d.2.#.j q q q q q q q q q q q q q q q q q q   ",
"                                            $ j ,.f.l.l.l.l.l.l.X.R S A d a q q q q q q q q q q q q   ",
"                                                    i o.1.f.l.w.E E E E E E E Y R ;.<.*.#.O.O.k k k   ",
"                                                            8 ; 3 M K E E E E E ~ l.l.l.l.l.l.l.l.l.  ",
"                                                                      X & = , 3 ( 1.1.i.i.l.l.l.l.l.  ",
"                                                                                                      "
};
