/* XPM */
static char *result[] = {
/* columns rows colors chars-per-pixel */
"50 50 10 1 ",
"  c gray30",
". c #C1272D",
"X c #CA565B",
"o c #CA575B",
"O c #D38689",
"+ c #DCB6B7",
"@ c #DDB6B7",
"# c #DCB6B8",
"$ c #DDB6B8",
"% c #E6E6E6",
/* pixels */
"%%%%%%o.....O%%%%%@......%%%%%%o.....O%%%%%@......",
"%%%%%%o.....O%%%%%@......%%%%%%o.....O%%%%%@......",
"%%%%%%o.....O%%%%%@......%%%%%%o.....O%%%%%@......",
"%%%%%%o.....O%%%%%@......%%%%%%o.....O%%%%%@......",
"%%%%%%o.....O%%%%%@......%%%%%%o.....O%%%%%@......",
"%%%%%                                        .....",
"ooooo                                        +++++",
".....                                        %%%%%",
".....                                        %%%%%",
".....                                        %%%%%",
".....                                        %%%%%",
".....                                        %%%%%",
"OOOOO                                        OOOOO",
"%%%%%                                        .....",
"%%%%%                                        .....",
"%%%%%                                        .....",
"%%%%%                                        .....",
"%%%%%                                        .....",
"$$$$$                                        XXXXX",
".....                                        %%%%%",
".....                                        %%%%%",
".....                                        %%%%%",
".....                                        %%%%%",
".....                                        %%%%%",
".....                                        %%%%%",
"%%%%%                                        .....",
"%%%%%                                        .....",
"%%%%%                                        .....",
"%%%%%                                        .....",
"%%%%%                                        .....",
"%%%%%                                        .....",
"ooooo                                        +++++",
".....                                        %%%%%",
".....                                        %%%%%",
".....                                        %%%%%",
".....                                        %%%%%",
".....                                        %%%%%",
"OOOOO                                        OOOOO",
"%%%%%                                        .....",
"%%%%%                                        .....",
"%%%%%                                        .....",
"%%%%%                                        .....",
"%%%%%                                        .....",
"$$$$$                                        XXXXX",
".....                                        %%%%%",
"......#%%%%%O.....X%%%%%%......#%%%%%O.....X%%%%%%",
"......#%%%%%O.....X%%%%%%......#%%%%%O.....X%%%%%%",
"......#%%%%%O.....X%%%%%%......#%%%%%O.....X%%%%%%",
"......#%%%%%O.....X%%%%%%......#%%%%%O.....X%%%%%%",
"......#%%%%%O.....X%%%%%%......#%%%%%O.....X%%%%%%"
};
