/* XPM */
static char *result[] = {
/* columns rows colors chars-per-pixel */
"50 50 115 2 ",
"   c #1E1E1E",
".  c #281E1F",
"X  c #321F1F",
"o  c #3C1F20",
"O  c #2A2A2A",
"+  c #342A2A",
"@  c #3E2B2B",
"#  c gray21",
"$  c #512123",
"%  c #5B2123",
"&  c #652224",
"*  c #792226",
"=  c #792326",
"-  c #793E41",
";  c #434343",
":  c #4D4344",
">  c gray30",
",  c gray31",
"<  c #544A4B",
"1  c #5C4849",
"2  c gray34",
"3  c #634547",
"4  c #634647",
"5  c #6A4345",
"6  c #714143",
"7  c #6C4F51",
"8  c #655B5B",
"9  c #606060",
"0  c DimGray",
"q  c #6A6A6A",
"w  c gray45",
"e  c gray46",
"r  c #767676",
"t  c gray49",
"y  c #832327",
"u  c #8D2327",
"i  c #8E2328",
"p  c #8C3438",
"a  c #8E373B",
"s  c #87393D",
"d  c #803C3F",
"f  c #933236",
"g  c #9D3237",
"h  c #A3262B",
"j  c #AD262B",
"k  c #B7262C",
"l  c #BA292F",
"z  c #AB2E33",
"x  c #B32B31",
"c  c #B22C31",
"v  c #A43035",
"b  c #A43135",
"n  c #C1272D",
"m  c #C33338",
"M  c #C33339",
"N  c #C53E44",
"B  c #C53F44",
"V  c #C63F44",
"C  c #894648",
"Z  c #8A4648",
"A  c #845356",
"S  c #A0494C",
"D  c #816F6F",
"F  c #906A6B",
"G  c #A86E70",
"H  c #A07172",
"J  c #C84B4F",
"K  c #C0575A",
"L  c #CA575B",
"P  c #CC6266",
"I  c #CF6E72",
"U  c #CE6F72",
"Y  c #CF6F72",
"T  c #C87B7D",
"R  c #D17A7D",
"E  c #D17B7E",
"W  c gray51",
"Q  c #868686",
"!  c #8E8E8E",
"~  c gray56",
"^  c #978D8D",
"/  c #9E8C8C",
"(  c #9A9A9A",
")  c #AE9192",
"_  c #A4A4A4",
"`  c gray68",
"'  c #B4B4B4",
"]  c #B6B6B6",
"[  c #D38689",
"{  c #D3868A",
"}  c #D48789",
"|  c #D4878A",
" . c #CE9E9F",
".. c #D59294",
"X. c #D59295",
"o. c #D69395",
"O. c #CE9EA0",
"+. c #D89EA0",
"@. c #D89EA1",
"#. c #DAAAAC",
"$. c #DBAAAC",
"%. c #DDB6B8",
"&. c #C0C0C0",
"*. c #C1C1C1",
"=. c #CACACA",
"-. c #CDCDCD",
";. c #DFC2C3",
":. c LightGray",
">. c gray85",
",. c #DADADA",
"<. c gainsboro",
"1. c #E1CECF",
"2. c #E2CECF",
"3. c #E4DADB",
"4. c #E6E6E6",
/* pixels */
"4.4.,.-.' ' ! r , O                                                                                 ",
"4.4.4.4.4.4.4.4.4.O.j u % X                                                                         ",
"4.4.4.4.4.4.4.4.4.R n n n n j * o                                                                   ",
"4.4.4.4.4.4.4.4.4.L n n n n n n n j % +                                                             ",
"&.&.&.=.<.4.4.4.4.m n n n n n n n n V 4.( #                                                         ",
"> > > > > > 0 t ^ g l n n n n n n n +.4.4.4.( #                                                     ",
"> > > > > > > > > > > 3 d v n n n n 2.4.4.4.4.4.( #                                                 ",
"> > > > > > > > > > > > > > 1 - z I 4.4.4.4.4.4.4.-.0                                               ",
"> > > > > > > > > > > > > > > > > 8 ` 4.4.4.4.4.4.4.4.) X                                           ",
"> > > > > > > > > > > > > > > > > > > 9 ` 4.4.4.4.4.3.B k %                                         ",
"> > > > > > > > > > > > > > > > > > > > > 9 ` 4.4.4.E n n n =                                       ",
"> > > > > > > > > > > > > > > > > > > > > > > t :.%.n n n n n j X                                   ",
"> > > > > > > > > > > > > > > > > > > > > > > > > Z n n n n n n j X                                 ",
"> > > > > > > > > > > > > > > > > > > > > > > > > > 5 x n n n n n k o                               ",
"> > > > > > > > > > > > > > > > > > > > > > > > > > > 1 z n n n n n k @                             ",
"> > > > > > > > > > > > > > > > > > > > > > > > > > > > > a n n n n { >.;                           ",
"> > > > > > > > > > > > > > > > > > > > > > > > > > > > > > s n n { 4.4.>.#                         ",
"> > > > > > > > > > > > > > > > > > > > > > > > > > > > > > > s { 4.4.4.4.-.#                       ",
"> > > > > > > > > > > > > > > > > > > > > > > > > > > > > > > > ( 4.4.4.4.4.&.O                     ",
"> > > > > > > > > > > > > > > > > > > > > > > > > > > > > > > > > ( 4.4.4.4.4.!                     ",
"> > > > > > > > > > > > > > > > > > > > > > > > > > > > > > > > > > _ 4.4.4.4.4.e                   ",
"> > > > > > > > > > > > > > > > > > > > > > > > > > > > > > > > > > > &.4.4.4.4.>.#                 ",
"> > > > > > > > > > > > > > > > > > > > > > > > > > > > > > > > > > > 9 :.4.4.4.1.S                 ",
"> > > > > > > > > > > > > > > > > > > > > > > > > > > > > > > > > > > > w 4.4.o.m n &               ",
"> > > > > > > > > > > > > > > > > > > > > > > > > > > > > > > > > > > > > / L n n n k .             ",
"> > > > > > > > > > > > > > > > > > > > > > > > > > > > > > > > > > > > > < x n n n n =             ",
"> > > > > > > > > > > > > > > > > > > > > > > > > > > > > > > > > > > > > > 5 n n n n n X           ",
"> > > > > > > > > > > > > > > > > > > > > > > > > > > > > > > > > > > > > > > v n n n n y           ",
"> > > > > > > > > > > > > > > > > > > > > > > > > > > > > > > > > > > > > > > 1 n n n n n X         ",
"> > > > > > > > > > > > > > > > > > > > > > > > > > > > > > > > > > > > > > > > p n n n n *         ",
"> > > > > > > > > > > > > > > > > > > > > > > > > > > > > > > > > > > > > > > > 1 n n n n k .       ",
"> > > > > > > > > > > > > > > > > > > > > > > > > > > > > > > > > > > > > > > > > f n m [ ;.W       ",
"> > > > > > > > > > > > > > > > > > > > > > > > > > > > > > > > > > > > > > > > > 7 ..3.4.4.*.      ",
"> > > > > > > > > > > > > > > > > > > > > > > > > > > > > > > > > > > > > > > > > > &.4.4.4.4.,     ",
"> > > > > > > > > > > > > > > > > > > > > > > > > > > > > > > > > > > > > > > > > > ~ 4.4.4.4.W     ",
"> > > > > > > > > > > > > > > > > > > > > > > > > > > > > > > > > > > > > > > > > > 2 4.4.4.4.-.    ",
"> > > > > > > > > > > > > > > > > > > > > > > > > > > > > > > > > > > > > > > > > > > &.4.4.4.4.#   ",
"> > > > > > > > > > > > > > > > > > > > > > > > > > > > > > > > > > > > > > > > > > > ~ 4.4.4.4.e   ",
"> > > > > > > > > > > > > > > > > > > > > > > > > > > > > > > > > > > > > > > > > > > q 4.4.4.4.(   ",
"> > > > > > > > > > > > > > > > > > > > > > > > > > > > > > > > > > > > > > > > > > > > <.4.4.4.-.  ",
"> > > > > > > > > > > > > > > > > > > > > > > > > > > > > > > > > > > > > > > > > > > > ] 3.%.X.Y . ",
"> > > > > > > > > > > > > > > > > > > > > > > > > > > > > > > > > > > > > > > > > > > > C n n n n $ ",
"b G Q > > > > > > > > > > > > > > > > > > > > > > > > > > > > > > > > > > > > > > > > > 6 n n n n & ",
"n #.@.c D > > > > > > > > > > > > > > > > > > > > > > > > > > > > > > > > > > > > > > > 1 n n n n * ",
"n 2.L I 4.F > > > > > > > > > > > > > > > > > > > > > > > > > > > > > > > > > > > > > > < n n n n i ",
"M 1.V 2.} n A > > > > > > > > > > > > > > > > > > > > > > > > > > > > > > > > > > > > > > x n n n h ",
"K U +.} m $.<.2 > > > > > > > > > > > > > > > > > > > > > > > > > > > > > > > > > > > > > x n n n j ",
"  4 T P 3.%.L d > > > > > > > > > > > > > > > > > > > > > > > > > > > > > > > > > > > > > b n n n k ",
"    : | J N P H > > > > > > > > > > > > > > > > > > > > > > > > > > > > > > > > > > > > > b n n n n ",
"       .3.4.4.&.> > > > > > > > > > > > > > > > > > > > > > > > > > > > > > > > > > > > > b n n n n "
};
