/* XPM */
static char *result[] = {
/* columns rows colors chars-per-pixel */
"50 50 11 1 ",
"  c gray30",
". c #6A4345",
"X c #6C4F51",
"o c #6F5C5C",
"O c #716767",
"+ c gray45",
"@ c #C1272D",
"# c #CA565B",
"$ c #D38689",
"% c #DCB6B7",
"& c #E6E6E6",
/* pixels */
"@@@@@@.                                           ",
"@@@@@@.                                           ",
"@@@@@@.                                           ",
"@@@@@@.                                           ",
"@@@@@@.                                           ",
"@@@@@@.                                           ",
"%%%%%%O                                           ",
"&&&&&&+                                           ",
"&&&&&&+                                           ",
"&&&&&&+                                           ",
"&&&&&&+                                           ",
"&&&&&&+                                           ",
"$$$$$$o                                           ",
"@@@@@@.                                           ",
"@@@@@@.                                           ",
"@@@@@@.                                           ",
"@@@@@@.                                           ",
"@@@@@@.                                           ",
"######X                                           ",
"&&&&&&+                                           ",
"&&&&&&+                                           ",
"&&&&&&+                                           ",
"&&&&&&+                                           ",
"&&&&&&+                                           ",
"&&&&&&+                                           ",
"@@@@@@.                                           ",
"@@@@@@.                                           ",
"@@@@@@.                                           ",
"@@@@@@.                                           ",
"@@@@@@.                                           ",
"@@@@@@.                                           ",
"%%%%%%O                                           ",
"&&&&&&+                                           ",
"&&&&&&+                                           ",
"&&&&&&+                                           ",
"&&&&&&+                                           ",
"&&&&&&+                                           ",
"$$$$$$o                                           ",
"@@@@@@.                                           ",
"@@@@@@.                                           ",
"@@@@@@.                                           ",
"@@@@@@.                                           ",
"@@@@@@.                                           ",
"######X                                           ",
"&&&&&&+                                           ",
"&&&&&&+                                           ",
"&&&&&&+                                           ",
"&&&&&&+                                           ",
"&&&&&&+                                           ",
"&&&&&&+                                           "
};
