/* XPM */
static char *result[] = {
/* columns rows colors chars-per-pixel */
"50 50 116 2 ",
"   c #1E1E1E",
".  c #281E1E",
"X  c #281F1F",
"o  c #321E1F",
"O  c #321F1F",
"+  c #2A2A2A",
"@  c #3C2020",
"#  c #342B2B",
"$  c #373737",
"%  c #461F21",
"&  c #482C2C",
"*  c #5B2223",
"=  c #413737",
"-  c #652224",
";  c #6F2225",
":  c #792326",
">  c #783E41",
",  c #434343",
"<  c gray30",
"1  c #544B4B",
"2  c #5C4849",
"3  c gray34",
"4  c gray36",
"5  c #624546",
"6  c #634547",
"7  c #634647",
"8  c #6A4345",
"9  c #714143",
"0  c #724143",
"q  c #624F50",
"w  c #7D5658",
"e  c #606060",
"r  c DimGray",
"t  c #716868",
"y  c gray45",
"u  c gray46",
"i  c #767676",
"p  c gray49",
"a  c #832326",
"s  c #832327",
"d  c #982529",
"f  c #8E373B",
"g  c #87393D",
"h  c #803C3F",
"j  c #9D3237",
"k  c #963539",
"l  c #A3252A",
"z  c #A2262A",
"x  c #AC262B",
"c  c #AD262B",
"v  c #B7272C",
"b  c #BA292F",
"n  c #AC2E33",
"m  c #B32C31",
"M  c #A43035",
"N  c #A43135",
"B  c #C1272D",
"V  c #C33338",
"C  c #C33339",
"Z  c #C53F44",
"A  c #C63F44",
"S  c #894648",
"D  c #935052",
"F  c #A0494D",
"G  c #906A6B",
"H  c #8B7778",
"J  c #A07172",
"K  c #AB7B7C",
"L  c #C84B4F",
"P  c #CA575B",
"I  c #C26266",
"U  c #CC6266",
"Y  c #CC6366",
"T  c #CE6E72",
"R  c #CF6F72",
"E  c #D17A7D",
"W  c #D17A7E",
"Q  c #D17B7E",
"!  c #868686",
"~  c #8E8E8E",
"^  c gray56",
"/  c #978D8E",
"(  c #978E8E",
")  c #9A9A9A",
"_  c #9B9B9B",
"`  c #AD9092",
"'  c #A0A0A0",
"]  c gray64",
"[  c #A7A7A7",
"{  c #AAAAAA",
"}  c #B6B6B6",
"|  c gray75",
" . c #CA8789",
".. c #D38689",
"X. c #D3868A",
"o. c #D4878A",
"O. c #D59295",
"+. c #D69296",
"@. c #D89EA0",
"#. c #D89EA1",
"$. c #D0AAAB",
"%. c #DAAAAC",
"&. c #DDB6B8",
"*. c #C0C0C0",
"=. c gray79",
"-. c #CACACA",
";. c #CDCDCD",
":. c #DFC2C4",
">. c LightGray",
",. c #DADADA",
"<. c gainsboro",
"1. c #E1CECF",
"2. c #E2CECF",
"3. c #E4DADA",
"4. c #E4DADB",
"5. c #E6E6E6",
/* pixels */
"                                                                                + 4 i ~ [ *.;.,.5.5.",
"                                                                        o - a x @.5.5.5.5.5.5.5.5.5.",
"                                                                  % ; x B B B B W 5.5.5.5.5.5.5.5.5.",
"                                                            + ; z B B B B B B B P 5.5.5.5.5.5.5.5.5.",
"                                                        $ ~ ,.L B B B B B B B B C 5.5.5.5.>.>.*.*.*.",
"                                                    $ _ 5.5.5...B B B B B B B b j / p e 3 < < < < < ",
"                                                + ~ 5.5.5.5.5.3.V B B B M h 6 < < < < < < < < < < < ",
"                                              u ,.5.5.5.5.5.5.5.E M h 1 < < < < < < < < < < < < < < ",
"                                          O ` 5.5.5.5.5.5.5.5.{ t < < < < < < < < < < < < < < < < < ",
"                                        - v A 4.5.5.5.5.5.' e < < < < < < < < < < < < < < < < < < < ",
"                                    . : B B B Q 5.5.5.*.e < < < < < < < < < < < < < < < < < < < < < ",
"                                  O l B B B B B &.>.y < < < < < < < < < < < < < < < < < < < < < < < ",
"                                O c B B B B B B D 3 < < < < < < < < < < < < < < < < < < < < < < < < ",
"                              @ v B B B B B m 8 < < < < < < < < < < < < < < < < < < < < < < < < < < ",
"                            = v B B B B B M 2 < < < < < < < < < < < < < < < < < < < < < < < < < < < ",
"                          , ,...B B B B f < < < < < < < < < < < < < < < < < < < < < < < < < < < < < ",
"                        $ ,.5.5...B B g < < < < < < < < < < < < < < < < < < < < < < < < < < < < < < ",
"                      $ ;.5.5.5.5...g < < < < < < < < < < < < < < < < < < < < < < < < < < < < < < < ",
"                      ;.5.5.5.5.5.) < < < < < < < < < < < < < < < < < < < < < < < < < < < < < < < < ",
"                    ~ 5.5.5.5.5.) < < < < < < < < < < < < < < < < < < < < < < < < < < < < < < < < < ",
"                  r 5.5.5.5.5.] < < < < < < < < < < < < < < < < < < < < < < < < < < < < < < < < < < ",
"                $ ,.5.5.5.5.-.< < < < < < < < < < < < < < < < < < < < < < < < < < < < < < < < < < < ",
"                F 2.5.5.5.>.e < < < < < < < < < < < < < < < < < < < < < < < < < < < < < < < < < < < ",
"              * B C +.5.5.y < < < < < < < < < < < < < < < < < < < < < < < < < < < < < < < < < < < < ",
"            O c B B B P ( < < < < < < < < < < < < < < < < < < < < < < < < < < < < < < < < < < < < < ",
"            s B B B B m < < < < < < < < < < < < < < < < < < < < < < < < < < < < < < < < < < < < < < ",
"          O B B B B B 9 < < < < < < < < < < < < < < < < < < < < < < < < < < < < < < < < < < < < < < ",
"          s B B B B k < < < < < < < < < < < < < < < < < < < < < < < < < < < < < < < < < < < < < < < ",
"        O B B B B B 2 < < < < < < < < < < < < < < < < < < < < < < < < < < < < < < < < < < < < < < < ",
"        s B B B B k < < < < < < < < < < < < < < < < < < < < < < < < < < < < < < < < < < < < < < < < ",
"      # B B B B B 2 < < < < < < < < < < < < < < < < < < < < < < < < < < < < < < < < < < < < < < < < ",
"      r 1.T Z B k < < < < < < < < < < < < < < < < < < < < < < < < < < < < < < < < < < < < < < < < < ",
"      ;.5.5.5.@.q < < < < < < < < < < < < < < < < < < < < < < < < < < < < < < < < < < < < < < < < < ",
"    , 5.5.5.5.=.< < < < < < < < < < < < < < < < < < < < < < < < < < < < < < < < < < < < < < < < < < ",
"    ~ 5.5.5.5.! < < < < < < < < < < < < < < < < < < < < < < < < < < < < < < < < < < < < < < < < < < ",
"    ;.5.5.5.5.e < < < < < < < < < < < < < < < < < < < < < < < < < < < < < < < < < < < < < < < < < < ",
"  $ 5.5.5.5.*.< < < < < < < < < < < < < < < < < < < < < < < < < < < < < < < < < < < < < < < < < < < ",
"  r 5.5.5.5.^ < < < < < < < < < < < < < < < < < < < < < < < < < < < < < < < < < < < < < < < < < < < ",
"  [ 5.5.5.5.r < < < < < < < < < < < < < < < < < < < < < < < < < < < < < < < < < < < < < < < < < < < ",
"  ;.5.5.5.<.< < < < < < < < < < < < < < < < < < < < < < < < < < < < < < < < < < < < < < < < < < < < ",
"X R O.&.4.} < < < < < < < < < < < < < < < < < < < < < < < < < < < < < < < < < < < < < < < < < < < < ",
"% B B B B S < < < < < < < < < < < < < < < < < < < < < < < < < < < < < < < < < < < < < < < < < < < < ",
"- B B B B 0 < < < < < < < < < < < < < < < < < < < < < < < < < < < < < < < < < < < < < < < < 1 ^ J N ",
": B B B B 7 < < < < < < < < < < < < < < < < < < < < < < < < < < < < < < < < < < < < < < < H b &.%.B ",
"d B B B B < < < < < < < < < < < < < < < < < < < < < < < < < < < < < < < < < < < < < < < G 5.Y P 1.B ",
"d B B B b < < < < < < < < < < < < < < < < < < < < < < < < < < < < < < < < < < < < < < w B o.3.V :.V ",
"c B B B n < < < < < < < < < < < < < < < < < < < < < < < < < < < < < < < < < < < < < < >.@.Z o.%.X.I ",
"v B B B M < < < < < < < < < < < < < < < < < < < < < < < < < < < < < < < < < < < < < > R &.1.T  .&   ",
"B B B B M < < < < < < < < < < < < < < < < < < < < < < < < < < < < < < < < < < < < < K U Z A #.5     ",
"B B B B M < < < < < < < < < < < < < < < < < < < < < < < < < < < < < < < < < < < < < | 5.5.4.$.      "
};
