/* XPM */
static char *result[] = {
/* columns rows colors chars-per-pixel */
"50 50 144 2 ",
"   c #1E1E1E",
".  c #281E1E",
"X  c #281E1F",
"o  c #281F1F",
"O  c #321E1F",
"+  c #321F1F",
"@  c #321F20",
"#  c #3C1F20",
"$  c #2A2A2A",
"%  c #342A2B",
"&  c #353535",
"*  c gray21",
"=  c #373737",
"-  c gray22",
";  c gray23",
":  c #3E3E3E",
">  c #461F21",
",  c #462021",
"<  c #512123",
"1  c #5B2123",
"2  c #5B2223",
"3  c #5B2124",
"4  c #5B2224",
"5  c #413737",
"6  c #652224",
"7  c #6F2225",
"8  c #792226",
"9  c #7C2E31",
"0  c #7D3A3C",
"q  c #6F3E40",
"w  c #793F41",
"e  c #414141",
"r  c #434343",
"t  c gray27",
"y  c gray28",
"u  c #484848",
"i  c gray29",
"p  c #4B4B4B",
"a  c gray30",
"s  c gray31",
"d  c #514748",
"f  c #544B4B",
"g  c #5C4849",
"h  c gray34",
"j  c #5B5B5B",
"k  c #674042",
"l  c #6A4345",
"z  c #724143",
"x  c #6C4F51",
"c  c #6F5C5C",
"v  c #606060",
"b  c DimGray",
"n  c gray44",
"m  c gray45",
"M  c gray46",
"N  c #7C7C7C",
"B  c #832327",
"V  c #8D2327",
"C  c #8D2328",
"Z  c #8E2328",
"A  c #982529",
"S  c #84373A",
"D  c #873A3D",
"F  c #903033",
"G  c #9D3337",
"H  c #953539",
"J  c #963539",
"K  c #A3262A",
"L  c #AC262B",
"P  c #AD262B",
"I  c #B7262C",
"U  c #B7272C",
"Y  c #BA292F",
"T  c #A92B30",
"R  c #AB2E33",
"E  c #AC2E33",
"W  c #B32B31",
"Q  c #B32C31",
"!  c #A43035",
"~  c #C1272D",
"^  c #C33338",
"/  c #C33339",
"(  c #C53F44",
")  c #C63F44",
"_  c #B44A4D",
"`  c #B44A4E",
"'  c #B9595C",
"]  c #947778",
"[  c #B7696C",
"{  c #B97678",
"}  c #C0575A",
"|  c #C3585D",
" . c #CC6267",
".. c #CC6367",
"X. c #CE6E72",
"o. c #D17A7D",
"O. c #D17A7E",
"+. c #818181",
"@. c gray51",
"#. c #868686",
"$. c gray54",
"%. c #8E8E8E",
"&. c gray56",
"*. c gray60",
"=. c #9A9A9A",
"-. c #9B9B9B",
";. c #BF8687",
":. c #AD9191",
">. c #A89595",
",. c gray64",
"<. c #A4A4A4",
"1. c #A7A7A7",
"2. c #AAA1A1",
"3. c #AAAAAA",
"4. c #ACACAC",
"5. c gray68",
"6. c #B4B4B4",
"7. c #C98688",
"8. c #D38689",
"9. c #D3868A",
"0. c #CE9497",
"q. c #C79799",
"w. c #D59295",
"e. c #D79EA0",
"r. c #D89EA0",
"t. c #D89EA1",
"y. c #DAAAAC",
"u. c #DCB6B7",
"i. c #C0C0C0",
"p. c #C1C1C1",
"a. c #CDCDCD",
"s. c #CECECE",
"d. c #DFC2C3",
"f. c #DFC2C4",
"g. c #D0D0D0",
"h. c LightGray",
"j. c gray85",
"k. c #DADADA",
"l. c gainsboro",
"z. c #E1CECF",
"x. c #E2CECF",
"c. c #E4DADA",
"v. c #E4DADB",
"b. c #E6E6E6",
/* pixels */
"                                        . 6 V L ~ ~ L A 6 +                                         ",
"                                    s 6.X.~ ~ ~ ~ ~ ~ ~ ~  .6.r                                     ",
"                                $ %.b.b.8.~ ~ ~ ~ ~ ~ ~ ~ O.b.b.=.*                                 ",
"                              5 a.b.b.b.e.~ ~ ~ ~ ~ ~ ~ ~ 8.b.b.b.a.r                               ",
"                            1 } b.b.b.b.y.~ Y R H J ! Y ~ r.b.b.b.b...3                             ",
"                          1 ~ / b.b.b.l.2.l a a a a a a l >.b.b.b.b.( ~ 6                           ",
"                        > ~ ~ ~ f.b.4.v a a a a a a a a a a v 5.b.z.~ ~ ~ 3                         ",
"                      + U ~ ~ ~ 0.m a a a a a a a a a a a a a a n q.~ ~ ~ I #                       ",
"                    $ _ ~ ~ ~ Q g a a a a a a a a a a a a a a a a g W ~ ~ ~ ` $                     ",
"                    %.w.~ ~ Q g a a a a a a a a a a a a a a a a a a d R ~ ~ r.1.                    ",
"                  b b.c.^ Q g a a a a a a a a a a a a a a a a a a a a d W ~ x.b.M                   ",
"                $ a.b.b.| g a a a a a a a a a a a a a a a a a a a a a a g ' b.b.j.$                 ",
"                +.b.b.b.#.a a a a a a a a a a a a a a a a a a a a a a a a m b.b.b.%.                ",
"              = b.b.b.,.a a a a a a a a a a a a a a a a a a a a a a a a a a <.b.b.b.*               ",
"              ] b.b.h.v a a a a a a a a a a a a a a a a a a a a a a a a a a h h.b.b.:.              ",
"            + / v.b.#.a a a a a a a a a a a a a a a a a a a a a a a a a a a a m b.b.( ,             ",
"            B ~ 9.i.a a a a a a a a a a a a a a a a a a a a a a a a a a a a a a i.t.~ B             ",
"          + U ~ / v a a a a a a a a a a a a a a a a a a a a a a a a a a a a a a j ( ~ ~ X           ",
"          2 ~ ~ G a a a a a a a a a a a a a a a a a a a a a a a a a a a a a a a a F ~ ~ 7           ",
"          P ~ ~ l a a a a a a a a a a a a a a a a a a a a a a a a a a a a a a a a l ~ ~ I           ",
"        > ~ ~ E a a a a a a a a a a a a a a a a a a a a a a a a a a a a a a a a a a ! ~ ~ ,         ",
"        B ~ ~ w a a a a a a a a a a a a a a a a a a a a a a a a a a a a a a a a a a k ~ ~ B         ",
"        ;.~ Y a a a a a a a a a a a a a a a a a a a a a a a a a a a a a a a a a a a i Y ~ 7.$       ",
"      s b.o.J a a a a a a a a a a a a a a a a a a a a a a a a a a a a a a a a a a a a S O.b.s       ",
"      %.b.b.c a a a a a a a a a a a a a a a a a a a a a a a a a a a a a a a a a a a a x v.b.%.      ",
"      p.b.h.a a a a a a a a a a a a a a a a a a a a a a a a a a a a a a a a a a a a a a g.b.j.      ",
"    = b.b.4.a a a a a a a a a a a a a a a a a a a a a a a a a a a a a a a a a a a a a a ,.b.b.r     ",
"    b b.b.N a a a a a a a a a a a a a a a a a a a a a a a a a a a a a a a a a a a a a a m b.b.M     ",
"    -.b.b.h a a a a a a a a a a a a a a a a a a a a a a a a a a a a a a a a a a a a a a i k.b.1.    ",
"    p.b.i.a a a a a a a a a a a a a a a a a a a a a a a a a a a a a a a a a a a a a a a a i.b.j.    ",
"  o x.b.,.a a a a a a a a a a a a a a a a a a a a a a a a a a a a a a a a a a a a a a a a $.b.z.%   ",
"  > ) f.m a a a a a a a a a a a a a a a a a a a a a a a a a a a a a a a a a a a a a a a a m d.( 1   ",
"  6 ~ ~ f a a a a a a a a a a a a a a a a a a a a a a a a a a a a a a a a a a a a a a a a h ^ ~ 8   ",
"  C ~ E a a a a a a a a a a a a a a a a a a a a a a a a a a a a a a a a a a a a a a a a a a T ~ Z   ",
"  K ~ G a a a a a a a a a a a a a a a a a a a a a a a a a a a a a a a a a a a a a a a a a a J ~ P   ",
"  ~ ~ D a a a a a a a a a a a a a a a a a a a a a a a a a a a a a a a a a a a a a a a a a a 0 ~ ~ X ",
"@ ~ ~ z a a a a a a a a a a a a a a a a a a a a a a a a a a a a a a a a a a a a a a a a a a q ~ ~ O ",
"> ~ ~ l a a a a a a a a a a a a a a a a a a a a a a a a a a a a a a a a a a a a a a a a a a g ~ ~ < ",
"4 ~ ~ f a a a a a a a a a a a a a a a a a a a a a a a a a a a a a a a a a a a a a a a a a a i ~ ~ 6 ",
"7 ~ Y a a a a a a a a a a a a a a a a a a a a a a a a a a a a a a a a a a a a a a a a a a a a W ~ 9 ",
"%.u.[ a a a a a a a a a a a a a a a a a a a a a a a a a a a a a a a a a a a a a a a a a a a a { u.=.",
"1.b.i.a a a a a a a a a a a a a a a a a a a a a a a a a a a a a a a a a a a a a a a a a a a a 3.b.6.",
"6.b.4.a a a a a a a a a a a a a a a a a a a a a a a a a a a a a a a a a a a a a a a a a a a a 4.b.p.",
"p.b.,.a a a a a a a a a a a a a a a a a a a a a a a a a a a a a a a a a a a a a a a a a a a a *.b.a.",
"s.b.*.a a a a a a a a a a a a a a a a a a a a a a a a a a a a a a a a a a a a a a a a a a a a &.b.a.",
"s.b.#.a a a a a a a a a a a a a a a a a a a a a a a a a a a a a a a a a a a a a a a a a a a a #.b.a.",
"b.b.#.a a a a a a a a a a a a a a a a a a a a a a a a a a a a a a a a a a a a a a a a a a a a #.b.b.",
"b.b.m a a a a a a a a a a a a a a a a a a a a a a a a a a a a a a a a a a a a a a a a a a a a #.b.b.",
"b.b.m a a a a a a a a a a a a a a a a a a a a a a a a a a a a a a a a a a a a a a a a a a a a m b.b.",
"@.@.u & & & & & & & & & - ; ; ; ; ; ; ; ; ; ; : e e e e e e e e e e t y y y y y y y y y p a a m b.b."
};
