/* XPM */
static char *result[] = {
/* columns rows colors chars-per-pixel */
"50 50 118 2 ",
"   c #1E1E1E",
".  c #281E1F",
"X  c #321F1F",
"o  c #321F20",
"O  c #2A2A2A",
"+  c #3C2021",
"@  c #342B2B",
"#  c gray21",
"$  c #462021",
"%  c #482B2D",
"&  c #5B2124",
"*  c #413838",
"=  c #652224",
"-  c #652225",
";  c #662225",
":  c #702326",
">  c #792226",
",  c #7A2327",
"<  c #793F41",
"1  c #434343",
"2  c gray30",
"3  c #544B4B",
"4  c #5B4849",
"5  c gray34",
"6  c #5D5D5D",
"7  c #624647",
"8  c #634647",
"9  c #6A4445",
"0  c #714143",
"q  c #625050",
"w  c #7D5758",
"e  c #606060",
"r  c DimGray",
"t  c #6A6A6A",
"y  c #716768",
"u  c gray45",
"i  c gray46",
"p  c #767676",
"a  c gray49",
"s  c #842327",
"d  c #982429",
"f  c #8E373B",
"g  c #873A3D",
"h  c #803C3F",
"j  c #9D3337",
"k  c #953539",
"l  c #A3252B",
"z  c #AD262B",
"x  c #AD262C",
"c  c #B7262C",
"v  c #B7272D",
"b  c #BA292F",
"n  c #AB2E33",
"m  c #B22B31",
"M  c #A43035",
"N  c #A43135",
"B  c #C1272D",
"V  c #C33338",
"C  c #C33339",
"Z  c #C53F44",
"A  c #C63F44",
"S  c #894648",
"D  c #9F484B",
"F  c #934F52",
"G  c #90696B",
"H  c #8B7878",
"J  c #A17172",
"K  c #AA7A7C",
"L  c #C84B4F",
"P  c #CA575B",
"I  c #C26266",
"U  c #CC6367",
"Y  c #CE6E72",
"T  c #CF6F72",
"R  c #D17A7D",
"E  c #D17A7E",
"W  c #868686",
"Q  c #8E8E8E",
"!  c gray56",
"~  c #978D8D",
"^  c gray60",
"/  c #9A9A9A",
"(  c #AD9091",
")  c #A0A0A0",
"_  c gray64",
"`  c #A7A7A7",
"'  c gray66",
"]  c #A9A9A9",
"[  c #B6B6B6",
"{  c gray75",
"}  c #C98688",
"|  c #D38689",
" . c #D3868A",
".. c #D4878A",
"X. c #D59294",
"o. c #D69295",
"O. c #D79EA0",
"+. c #D89EA0",
"@. c #D89EA1",
"#. c #D1AAAB",
"$. c #DAAAAC",
"%. c #DBAAAC",
"&. c #DCB6B7",
"*. c #DDB6B7",
"=. c #C0C0C0",
"-. c #C1C1C1",
";. c #CACACA",
":. c #CDCDCD",
">. c #CECECE",
",. c #DFC2C3",
"<. c LightGray",
"1. c #DADADA",
"2. c gainsboro",
"3. c #E1CECF",
"4. c #E2CECF",
"5. c #E4DADA",
"6. c #E4DADB",
"7. c #E6E6E6",
/* pixels */
"      #.6.7.7.=.2 2 2 2 2 2 2 2 2 2 2 2 2 2 2 2 2 2 2 2 2 2 2 2 2 2 2 2 2 2 2 2 2 2 2 2 2 N B B B B ",
"    7 +.Z A U K 2 2 2 2 2 2 2 2 2 2 2 2 2 2 2 2 2 2 2 2 2 2 2 2 2 2 2 2 2 2 2 2 2 2 2 2 2 N B B B B ",
"  % } T 4.&.Y < 2 2 2 2 2 2 2 2 2 2 2 2 2 2 2 2 2 2 2 2 2 2 2 2 2 2 2 2 2 2 2 2 2 2 2 2 2 N B B B c ",
"I | %.| A @.<.2 2 2 2 2 2 2 2 2 2 2 2 2 2 2 2 2 2 2 2 2 2 2 2 2 2 2 2 2 2 2 2 2 2 2 2 2 2 n B B B z ",
"C ,.C 6.| B w 2 2 2 2 2 2 2 2 2 2 2 2 2 2 2 2 2 2 2 2 2 2 2 2 2 2 2 2 2 2 2 2 2 2 2 2 2 2 b B B B d ",
"B 4.P U 7.G 2 2 2 2 2 2 2 2 2 2 2 2 2 2 2 2 2 2 2 2 2 2 2 2 2 2 2 2 2 2 2 2 2 2 2 2 2 2 2 B B B B d ",
"B $.*.b H 2 2 2 2 2 2 2 2 2 2 2 2 2 2 2 2 2 2 2 2 2 2 2 2 2 2 2 2 2 2 2 2 2 2 2 2 2 2 2 7 B B B B > ",
"M J ! 3 2 2 2 2 2 2 2 2 2 2 2 2 2 2 2 2 2 2 2 2 2 2 2 2 2 2 2 2 2 2 2 2 2 2 2 2 2 2 2 2 0 B B B B = ",
"2 2 2 2 2 2 2 2 2 2 2 2 2 2 2 2 2 2 2 2 2 2 2 2 2 2 2 2 2 2 2 2 2 2 2 2 2 2 2 2 2 2 2 2 S B B B B $ ",
"2 2 2 2 2 2 2 2 2 2 2 2 2 2 2 2 2 2 2 2 2 2 2 2 2 2 2 2 2 2 2 2 2 2 2 2 2 2 2 2 2 2 2 2 [ 6.&.X.Y . ",
"2 2 2 2 2 2 2 2 2 2 2 2 2 2 2 2 2 2 2 2 2 2 2 2 2 2 2 2 2 2 2 2 2 2 2 2 2 2 2 2 2 2 2 2 2.7.7.7.:.  ",
"2 2 2 2 2 2 2 2 2 2 2 2 2 2 2 2 2 2 2 2 2 2 2 2 2 2 2 2 2 2 2 2 2 2 2 2 2 2 2 2 2 2 2 t 7.7.7.7.`   ",
"2 2 2 2 2 2 2 2 2 2 2 2 2 2 2 2 2 2 2 2 2 2 2 2 2 2 2 2 2 2 2 2 2 2 2 2 2 2 2 2 2 2 2 ! 7.7.7.7.r   ",
"2 2 2 2 2 2 2 2 2 2 2 2 2 2 2 2 2 2 2 2 2 2 2 2 2 2 2 2 2 2 2 2 2 2 2 2 2 2 2 2 2 2 2 { 7.7.7.7.#   ",
"2 2 2 2 2 2 2 2 2 2 2 2 2 2 2 2 2 2 2 2 2 2 2 2 2 2 2 2 2 2 2 2 2 2 2 2 2 2 2 2 2 2 e 7.7.7.7.:.    ",
"2 2 2 2 2 2 2 2 2 2 2 2 2 2 2 2 2 2 2 2 2 2 2 2 2 2 2 2 2 2 2 2 2 2 2 2 2 2 2 2 2 2 W 7.7.7.7.Q     ",
"2 2 2 2 2 2 2 2 2 2 2 2 2 2 2 2 2 2 2 2 2 2 2 2 2 2 2 2 2 2 2 2 2 2 2 2 2 2 2 2 2 2 ;.7.7.7.7.1     ",
"2 2 2 2 2 2 2 2 2 2 2 2 2 2 2 2 2 2 2 2 2 2 2 2 2 2 2 2 2 2 2 2 2 2 2 2 2 2 2 2 2 q @.7.7.7.:.      ",
"2 2 2 2 2 2 2 2 2 2 2 2 2 2 2 2 2 2 2 2 2 2 2 2 2 2 2 2 2 2 2 2 2 2 2 2 2 2 2 2 2 k B A T 4.r       ",
"2 2 2 2 2 2 2 2 2 2 2 2 2 2 2 2 2 2 2 2 2 2 2 2 2 2 2 2 2 2 2 2 2 2 2 2 2 2 2 2 4 B B B B B @       ",
"2 2 2 2 2 2 2 2 2 2 2 2 2 2 2 2 2 2 2 2 2 2 2 2 2 2 2 2 2 2 2 2 2 2 2 2 2 2 2 2 k B B B B s         ",
"2 2 2 2 2 2 2 2 2 2 2 2 2 2 2 2 2 2 2 2 2 2 2 2 2 2 2 2 2 2 2 2 2 2 2 2 2 2 2 4 B B B B B o         ",
"2 2 2 2 2 2 2 2 2 2 2 2 2 2 2 2 2 2 2 2 2 2 2 2 2 2 2 2 2 2 2 2 2 2 2 2 2 2 2 k B B B B s           ",
"2 2 2 2 2 2 2 2 2 2 2 2 2 2 2 2 2 2 2 2 2 2 2 2 2 2 2 2 2 2 2 2 2 2 2 2 2 2 0 B B B B B o           ",
"2 2 2 2 2 2 2 2 2 2 2 2 2 2 2 2 2 2 2 2 2 2 2 2 2 2 2 2 2 2 2 2 2 2 2 2 2 2 m B B B B s             ",
"2 2 2 2 2 2 2 2 2 2 2 2 2 2 2 2 2 2 2 2 2 2 2 2 2 2 2 2 2 2 2 2 2 2 2 2 2 ~ P B B B x o             ",
"2 2 2 2 2 2 2 2 2 2 2 2 2 2 2 2 2 2 2 2 2 2 2 2 2 2 2 2 2 2 2 2 2 2 2 2 u 7.7.o.V B &               ",
"2 2 2 2 2 2 2 2 2 2 2 2 2 2 2 2 2 2 2 2 2 2 2 2 2 2 2 2 2 2 2 2 2 2 2 e <.7.7.7.3.D                 ",
"2 2 2 2 2 2 2 2 2 2 2 2 2 2 2 2 2 2 2 2 2 2 2 2 2 2 2 2 2 2 2 2 2 2 2 ;.7.7.7.7.1.#                 ",
"2 2 2 2 2 2 2 2 2 2 2 2 2 2 2 2 2 2 2 2 2 2 2 2 2 2 2 2 2 2 2 2 2 2 _ 7.7.7.7.7.r                   ",
"2 2 2 2 2 2 2 2 2 2 2 2 2 2 2 2 2 2 2 2 2 2 2 2 2 2 2 2 2 2 2 2 2 ^ 7.7.7.7.7.Q                     ",
"2 2 2 2 2 2 2 2 2 2 2 2 2 2 2 2 2 2 2 2 2 2 2 2 2 2 2 2 2 2 2 2 ^ 7.7.7.7.7.:.                      ",
"2 2 2 2 2 2 2 2 2 2 2 2 2 2 2 2 2 2 2 2 2 2 2 2 2 2 2 2 2 2 2 g ..7.7.7.7.:.#                       ",
"2 2 2 2 2 2 2 2 2 2 2 2 2 2 2 2 2 2 2 2 2 2 2 2 2 2 2 2 2 2 g B B ..7.7.1.#                         ",
"2 2 2 2 2 2 2 2 2 2 2 2 2 2 2 2 2 2 2 2 2 2 2 2 2 2 2 2 2 f B B B B ..1.1                           ",
"2 2 2 2 2 2 2 2 2 2 2 2 2 2 2 2 2 2 2 2 2 2 2 2 2 2 2 4 N B B B B B v *                             ",
"2 2 2 2 2 2 2 2 2 2 2 2 2 2 2 2 2 2 2 2 2 2 2 2 2 2 9 m B B B B B v +                               ",
"2 2 2 2 2 2 2 2 2 2 2 2 2 2 2 2 2 2 2 2 2 2 2 2 5 F B B B B B B x o                                 ",
"2 2 2 2 2 2 2 2 2 2 2 2 2 2 2 2 2 2 2 2 2 2 2 u <.*.B B B B B l o                                   ",
"2 2 2 2 2 2 2 2 2 2 2 2 2 2 2 2 2 2 2 2 2 e { 7.7.7.R B B B , .                                     ",
"2 2 2 2 2 2 2 2 2 2 2 2 2 2 2 2 2 2 2 e ) 7.7.7.7.7.5.Z v ;                                         ",
"2 2 2 2 2 2 2 2 2 2 2 2 2 2 2 2 2 y ] 7.7.7.7.7.7.7.7.( o                                           ",
"2 2 2 2 2 2 2 2 2 2 2 2 2 2 3 h N E 7.7.7.7.7.7.7.1.i                                               ",
"2 2 2 2 2 2 2 2 2 2 2 8 h N B B B C 6.7.7.7.7.7.Q O                                                 ",
"2 2 2 2 2 5 e a ~ j b B B B B B B B  .7.7.7./ #                                                     ",
"{ { { <.<.7.7.7.7.V B B B B B B B B L 1.Q #                                                         ",
"7.7.7.7.7.7.7.7.7.P B B B B B B B l : O                                                             ",
"7.7.7.7.7.7.7.7.7.R B B B B x : $                                                                   ",
"7.7.7.7.7.7.7.7.7.O.x s - X                                                                         ",
"7.7.1.>.-.' Q p 6 O                                                                                 "
};
