/* XPM */
static char *result[] = {
/* columns rows colors chars-per-pixel */
"50 50 185 2 ",
"   c #010101",
".  c #020202",
"X  c #040404",
"o  c #070707",
"O  c #090502",
"+  c #080603",
"@  c #0A0803",
"#  c #0C0A02",
"$  c #0D0A02",
"%  c #0F0B06",
"&  c #0D0C05",
"*  c gray3",
"=  c #090909",
"-  c gray4",
";  c #0B0B0B",
":  c #0E0C0A",
">  c #0F0D0B",
",  c #0C0C0C",
"<  c #0E0E0D",
"1  c #0E0E0E",
"2  c #110D02",
"3  c #160B06",
"4  c #180B05",
"5  c #120F0A",
"6  c #171407",
"7  c #181204",
"8  c #1C170C",
"9  c #101010",
"0  c gray7",
"q  c #141312",
"w  c #171613",
"e  c gray8",
"r  c #161616",
"t  c gray9",
"y  c #191919",
"u  c gray10",
"i  c #1B1B1B",
"p  c gray11",
"a  c #1D1D1D",
"s  c gray12",
"d  c #281107",
"f  c #231A07",
"g  c #251E0C",
"h  c #342F0C",
"j  c #232321",
"k  c #262623",
"l  c #252524",
"z  c #262625",
"x  c gray16",
"c  c #333131",
"v  c #343432",
"b  c #363634",
"n  c #393737",
"m  c gray23",
"M  c #3F3F3E",
"N  c #44190A",
"B  c #451B0B",
"V  c #461B0B",
"C  c #481C0B",
"Z  c #501C0B",
"A  c #511C0B",
"S  c #53210D",
"D  c #55210D",
"F  c #542516",
"G  c #403911",
"H  c #413C10",
"J  c #61220D",
"K  c #60240F",
"L  c #613411",
"P  c #673913",
"I  c #464011",
"U  c #474011",
"Y  c #494012",
"T  c #484112",
"R  c #4E4514",
"E  c #514817",
"W  c #544A17",
"Q  c #585017",
"!  c #615917",
"~  c #6B611A",
"^  c #494521",
"/  c #585120",
"(  c #49463F",
")  c #4E4A45",
"_  c #4E4D4D",
"`  c gray37",
"'  c gray38",
"]  c #6B6A69",
"[  c #6A6A6A",
"{  c #6D6D6B",
"}  c #716F6F",
"|  c #727271",
" . c #797979",
".. c #963615",
"X. c #9F3615",
"o. c #B64119",
"O. c #B84119",
"+. c #BE4119",
"@. c #BF4119",
"#. c #9F7905",
"$. c #9E7209",
"%. c #85771A",
"&. c #80761E",
"*. c #84791F",
"=. c #A07B07",
"-. c #A0780A",
";. c #817624",
":. c #84782D",
">. c #807937",
",. c #D64B1E",
"<. c #FE5722",
"1. c #AA8008",
"2. c #BA8C08",
"3. c #BC8F09",
"4. c #9F9325",
"5. c #A09122",
"6. c #A09325",
"7. c #A49424",
"8. c #BFAC28",
"9. c #BFAD28",
"0. c #B9A92E",
"q. c #BFB12C",
"w. c #C09205",
"e. c #D6A309",
"r. c #D6A40A",
"t. c #CFA915",
"y. c #E6AF08",
"u. c #EFB606",
"i. c #EFB607",
"p. c #E9B108",
"a. c #EAB208",
"s. c #EBB208",
"d. c #EDB30B",
"f. c #F6BB09",
"g. c #FABE08",
"h. c #C2AE29",
"j. c #C0B12C",
"k. c #C0B12D",
"l. c #FFC207",
"z. c #FFCD14",
"x. c #FFCD15",
"c. c #FFCE16",
"v. c #DFCA2F",
"b. c #DFCE33",
"n. c #E0CB2F",
"m. c #EFDD37",
"M. c #EBDA38",
"N. c #ECD938",
"B. c #F6E239",
"V. c #F5E23A",
"C. c #FFEC3B",
"Z. c #A09851",
"A. c #82807B",
"S. c #C8BD5D",
"D. c #FFED4A",
"F. c #FAEC6B",
"G. c #FFF171",
"H. c #808080",
"J. c #848380",
"K. c #848281",
"L. c #848381",
"P. c #858481",
"I. c #888683",
"U. c #969492",
"Y. c #9D9D9D",
"T. c #9F9E9D",
"R. c #9F9F9F",
"E. c #A0A0A0",
"W. c #A5A3A0",
"Q. c #ABAAA8",
"!. c #F7EA80",
"~. c #FFF384",
"^. c #FFF48C",
"/. c #CCCCCB",
"(. c #CDCDCD",
"). c gray81",
"_. c #FFFACE",
"`. c #FFFCE0",
"'. c #F6F4F1",
"]. c #F8F8F7",
"[. c #FFFEF5",
"{. c #FAF9F8",
"}. c #FFFEFA",
"|. c white",
" X c None",
/* pixels */
" X X X X X X X X X X X X X X X X X X X X X X X X X X X X X X X X X X X X X X X X X X X X X X X X X X",
" X X X X X X X X X X X X X X X X X X X X X X X X X X X X X X X X X X X X X X X X X X X X X X X X X X",
" X X X X X X X X X X X X X X X X X X X X X X X X X X X X X X X X X X X X X X X X X X X X X X X X X X",
" X X X X X X X X X X X X X X X X X X X X X X X X X X X X X X X X X X X X X X X X X X X X X X X X X X",
" X X X X X X X X X X X X X X X X X X X X X X X X X X X X X X X X X X X X X X X X X X X X X X X X X X",
" X X X X X X X X X X X X X X X X X X X X X X X X X X X X X X X X X X X X X X X X X X X X X X X X X X",
" X X X X X X X X X X X X X X X X X X X X X X X X X X X X X X X X X X X X X X X X X X X X X X X X X X",
" X X X X X X X X X X X X X X X X X X X X X X X X X X X X X X X X X X X X X X X X X X X X X X X X X X",
" X X X X X X X X X X X X X X X X X X X X X X X X X X X X X X X X X X X X X X X X X X X X X X X X X X",
" X X X X X X X X X X X X X X X X X X                                  9  X X X X X X X X X X X X X X",
" X X X X X X X X X X X X X X X X X X                                  9  X X X X X X X X X X X X X X",
" X X X X X X X X X X X X X X X X X XI U U U U U U U U U U h     0 M n v  X X X X X X X X X X X X X X",
" X X X X X X X X X X X X=         + C.C.C.C.C.C.C.C.C.C.C.4.    m  X X_      X X X X X X X X X X X X",
" X X X X X X X X X X X X-         + C.C.C.C.C.C.C.C.C.C.C.4.    ` |.|.}      X X X X X X X X X X X X",
" X X X X X X X X X X X XE R R R R W C.C.C.C.C.C.C.C.M.0.0.:.) ) U.|.|.W.) ) (  X X X X X X X X X X X",
" X X X X X X X X Xo     n.C.C.C.C.C.C.C.C.C.C.C.C.C.k.    ' |.|.|.|.|.|.|.|.J.     X X X X X X X X X",
" X X X X X X X X X*     v.C.C.C.C.C.C.C.C.C.C.C.C.C.k.    ' |.|.|.|.|.|.|.|.I.     X X X X X X X X X",
" X X X X X X X X X*     %.5.7.V.C.C.C.C.C.C.C.C.C.C.k.    ' |.|.|.|.|.(.Y.Y.] X X  X X X X X X X X X",
" X X Xy                     & N.C.C.C.C.C.C.C.C.C.C.k.    ' |.|.|.|.|.L.     X X Xj      X X X X X X",
" X X Xa                     & N.C.C.C.C.C.C.C.C.C.C.k.    ' |.|.|.|.|.K.    0  X Xl      X X X X X X",
" Xa s [ H.H.H.H.H.H.H.H.H.H.A.;.&.*.C.C.C.C.C.C.C.C.k.    ' |.|.|.|.|.P.    c  X Xk      X X X X X X",
"u     E.|.|.|.|.|.|.|.|.|.|.'.w   + C.C.C.C.C.C.C.C.k.    ' |.|.|.|.|.L.    [  X Xz      X X X X X X",
"a     E.|.|.|.|.|.|.|.|.|.|.'.w   + C.C.C.C.C.C.C.C.k.    ' |.|.|.|.|.P.     .|. Xb      X X X X X X",
"a     E.|.|.|.|.|.|.|.|.|.|.{.Q.R.T.! ! ~ C.C.C.C.C.m.4.4.>.' ' R.|.|.).R.R./.|.|.{      X X X X X X",
"i     E.|.|.|.|.|.|.|.|.|.|.|.|.|.].    % C.C.C.C.C.C.C.C.4.    ' |.|.|.|.|.|.|.|.|      X X X X X X",
"u     E.|.|.|.|.|.|.|.|.|.|.|.|.|.].    % C.C.C.C.C.C.C.C.4.    ' |.|.|.|.|.|.|.|.|      X X X X X X",
"u     Z.~.~.`.|.|.|.|.|.|.|.}.^.~.!.    % C.C.C.C.C.C.C.C.b.4.4.>.' ' ' ' ' ' ' ' x     < e t  X X X",
"u     6.C.C._.|.|.|.|.|.|.|.[.D.C.B.    % C.C.C.C.C.C.C.C.C.C.C.4.                             X X X",
"t     6.C.C._.|.|.|.|.|.|.|.[.D.C.B.    % C.C.C.C.C.C.C.C.C.C.C.4.                             X X X",
" X X X^ H H S.G.G.G.G.G.G.G.F.Q H G 9.8.h.C.C.C.C.C.C.C.C.j.H H L @.@.@.@.@.@.@.@.@.@.@.@.@.+.F , ; ",
" X X Xy     q.C.C.C.C.C.C.C.B.6   + C.C.C.C.C.C.C.C.C.C.C.4.    J <.<.<.<.<.<.<.<.<.<.<.<.<.<.Z     ",
" X X Xp     q.C.C.C.C.C.C.C.B.6   + C.C.C.C.C.C.C.C.C.C.C.4.    J <.<.<.<.<.<.<.<.<.<.<.<.<.<.A     ",
" X X X X X X/ T T T T T T T Y 1.2.3.c.c.z.c.x.x.c.z.t.T T P o.O...N C N V V N C N V V N C N B  X X X",
" X X X X X Xe               @ y.l.l.l.l.l.l.l.l.l.l.w.    J <.<.X.                             X X X",
" X X X X X Xr               @ s.l.l.l.l.l.l.l.l.l.l.w.    J <.<.X.                             X X X",
" X X X X X X X X X X X X,   # y.l.l.l.l.l.l.l.l.l.l.g.r.e.$.d d K ,.,.,.,.,.,.,.,.,.,.,.B      X X X",
" X X X X X X X X X X X Xq   + p.l.l.l.l.l.l.l.l.l.l.l.l.l.#.    J <.<.<.<.<.<.<.<.<.<.<.S      X X X",
" X X X X X X X X X X X X1   $ a.l.l.l.l.l.l.l.l.l.l.l.l.l.#.    J <.<.<.<.<.<.<.<.<.<.<.D      X X X",
" X X X X X X X X X X X X X X Xg 7 7 7 7 f l.l.l.l.l.l.l.l.f.d.d.-.4 4 4 4 4 4 4 4 4 4 3 O      X X X",
" X X X X X X X X X X X X X X X:         % l.l.l.l.l.l.l.l.l.l.l.#.                             X X X",
" X X X X X X X X X X X X X X X> . . . . 5 i.u.u.u.u.u.u.u.u.u.u.=.. . . . . . . . . . . . . .  X X X",
" X X X X X X X X X X X X X X X X X X X X X2 2 2 2 2 2 2 2 2 2 2 8  X X X X X X X X X X X X X X X X X",
" X X X X X X X X X X X X X X X X X X X X X                      =  X X X X X X X X X X X X X X X X X",
" X X X X X X X X X X X X X X X X X X X X X. . . . . . . . . . .  X X X X X X X X X X X X X X X X X X",
" X X X X X X X X X X X X X X X X X X X X X X X X X X X X X X X X X X X X X X X X X X X X X X X X X X",
" X X X X X X X X X X X X X X X X X X X X X X X X X X X X X X X X X X X X X X X X X X X X X X X X X X",
" X X X X X X X X X X X X X X X X X X X X X X X X X X X X X X X X X X X X X X X X X X X X X X X X X X",
" X X X X X X X X X X X X X X X X X X X X X X X X X X X X X X X X X X X X X X X X X X X X X X X X X X",
" X X X X X X X X X X X X X X X X X X X X X X X X X X X X X X X X X X X X X X X X X X X X X X X X X X",
" X X X X X X X X X X X X X X X X X X X X X X X X X X X X X X X X X X X X X X X X X X X X X X X X X X"
};
